<svg width="1363" height="163" viewBox="0 0 1363 163" fill="none" xmlns="http://www.w3.org/2000/svg">
<path d="M0 15C0 6.71573 6.71573 0 15 0H37V163H15C6.71573 163 0 156.284 0 148V15Z" fill="#424242"/>
<rect width="1097" height="163" transform="translate(37)" fill="#F0F0F0"/>
<path d="M101.906 53.9219L94.3945 51.2383V48.0859L104.602 52.375V54.6367L101.906 53.9219ZM94.3945 56.1719L101.918 53.4297L104.602 52.7852V55.0352L94.3945 59.3242V56.1719ZM121.781 56.5352C121.781 56.2305 121.734 55.957 121.641 55.7148C121.555 55.4648 121.391 55.2383 121.148 55.0352C120.906 54.8242 120.566 54.6172 120.129 54.4141C119.691 54.2109 119.125 54 118.43 53.7812C117.656 53.5312 116.922 53.25 116.227 52.9375C115.539 52.625 114.93 52.2617 114.398 51.8477C113.875 51.4258 113.461 50.9375 113.156 50.3828C112.859 49.8281 112.711 49.1836 112.711 48.4492C112.711 47.7383 112.867 47.0938 113.18 46.5156C113.492 45.9297 113.93 45.4297 114.492 45.0156C115.055 44.5938 115.719 44.2695 116.484 44.043C117.258 43.8164 118.105 43.7031 119.027 43.7031C120.285 43.7031 121.383 43.9297 122.32 44.3828C123.258 44.8359 123.984 45.457 124.5 46.2461C125.023 47.0352 125.285 47.9375 125.285 48.9531H121.793C121.793 48.4531 121.688 48.0156 121.477 47.6406C121.273 47.2578 120.961 46.957 120.539 46.7383C120.125 46.5195 119.602 46.4102 118.969 46.4102C118.359 46.4102 117.852 46.5039 117.445 46.6914C117.039 46.8711 116.734 47.1172 116.531 47.4297C116.328 47.7344 116.227 48.0781 116.227 48.4609C116.227 48.75 116.297 49.0117 116.438 49.2461C116.586 49.4805 116.805 49.6992 117.094 49.9023C117.383 50.1055 117.738 50.2969 118.16 50.4766C118.582 50.6562 119.07 50.832 119.625 51.0039C120.555 51.2852 121.371 51.6016 122.074 51.9531C122.785 52.3047 123.379 52.6992 123.855 53.1367C124.332 53.5742 124.691 54.0703 124.934 54.625C125.176 55.1797 125.297 55.8086 125.297 56.5117C125.297 57.2539 125.152 57.918 124.863 58.5039C124.574 59.0898 124.156 59.5859 123.609 59.9922C123.062 60.3984 122.41 60.707 121.652 60.918C120.895 61.1289 120.047 61.2344 119.109 61.2344C118.266 61.2344 117.434 61.125 116.613 60.9062C115.793 60.6797 115.047 60.3398 114.375 59.8867C113.711 59.4336 113.18 58.8555 112.781 58.1523C112.383 57.4492 112.184 56.6172 112.184 55.6562H115.711C115.711 56.1875 115.793 56.6367 115.957 57.0039C116.121 57.3711 116.352 57.668 116.648 57.8945C116.953 58.1211 117.312 58.2852 117.727 58.3867C118.148 58.4883 118.609 58.5391 119.109 58.5391C119.719 58.5391 120.219 58.4531 120.609 58.2812C121.008 58.1094 121.301 57.8711 121.488 57.5664C121.684 57.2617 121.781 56.918 121.781 56.5352ZM130.852 50.9453V61H127.465V48.3203H130.641L130.852 50.9453ZM130.383 54.2148H129.445C129.445 53.332 129.551 52.5195 129.762 51.7773C129.98 51.0273 130.297 50.3789 130.711 49.832C131.133 49.2773 131.652 48.8477 132.27 48.543C132.887 48.2383 133.602 48.0859 134.414 48.0859C134.977 48.0859 135.492 48.1719 135.961 48.3438C136.43 48.5078 136.832 48.7695 137.168 49.1289C137.512 49.4805 137.777 49.9414 137.965 50.5117C138.152 51.0742 138.246 51.75 138.246 52.5391V61H134.871V52.9141C134.871 52.3359 134.793 51.8906 134.637 51.5781C134.48 51.2656 134.258 51.0469 133.969 50.9219C133.688 50.7969 133.348 50.7344 132.949 50.7344C132.512 50.7344 132.129 50.8242 131.801 51.0039C131.48 51.1836 131.215 51.4336 131.004 51.7539C130.793 52.0664 130.637 52.4336 130.535 52.8555C130.434 53.2773 130.383 53.7305 130.383 54.2148ZM137.93 53.8281L136.723 53.9805C136.723 53.1523 136.824 52.3828 137.027 51.6719C137.238 50.9609 137.547 50.3359 137.953 49.7969C138.367 49.2578 138.879 48.8398 139.488 48.543C140.098 48.2383 140.801 48.0859 141.598 48.0859C142.207 48.0859 142.762 48.1758 143.262 48.3555C143.762 48.5273 144.188 48.8047 144.539 49.1875C144.898 49.5625 145.172 50.0547 145.359 50.6641C145.555 51.2734 145.652 52.0195 145.652 52.9023V61H142.266V52.9023C142.266 52.3164 142.188 51.8711 142.031 51.5664C141.883 51.2539 141.664 51.0391 141.375 50.9219C141.094 50.7969 140.758 50.7344 140.367 50.7344C139.961 50.7344 139.605 50.8164 139.301 50.9805C138.996 51.1367 138.742 51.3555 138.539 51.6367C138.336 51.918 138.184 52.2461 138.082 52.6211C137.98 52.9883 137.93 53.3906 137.93 53.8281ZM155.109 58.1406V52.4922C155.109 52.0859 155.043 51.7383 154.91 51.4492C154.777 51.1523 154.57 50.9219 154.289 50.7578C154.016 50.5938 153.66 50.5117 153.223 50.5117C152.848 50.5117 152.523 50.5781 152.25 50.7109C151.977 50.8359 151.766 51.0195 151.617 51.2617C151.469 51.4961 151.395 51.7734 151.395 52.0938H148.02C148.02 51.5547 148.145 51.043 148.395 50.5586C148.645 50.0742 149.008 49.6484 149.484 49.2812C149.961 48.9062 150.527 48.6133 151.184 48.4023C151.848 48.1914 152.59 48.0859 153.41 48.0859C154.395 48.0859 155.27 48.25 156.035 48.5781C156.801 48.9062 157.402 49.3984 157.84 50.0547C158.285 50.7109 158.508 51.5312 158.508 52.5156V57.9414C158.508 58.6367 158.551 59.207 158.637 59.6523C158.723 60.0898 158.848 60.4727 159.012 60.8008V61H155.602C155.438 60.6562 155.312 60.2266 155.227 59.7109C155.148 59.1875 155.109 58.6641 155.109 58.1406ZM155.555 53.2773L155.578 55.1875H153.691C153.246 55.1875 152.859 55.2383 152.531 55.3398C152.203 55.4414 151.934 55.5859 151.723 55.7734C151.512 55.9531 151.355 56.1641 151.254 56.4062C151.16 56.6484 151.113 56.9141 151.113 57.2031C151.113 57.4922 151.18 57.7539 151.312 57.9883C151.445 58.2148 151.637 58.3945 151.887 58.5273C152.137 58.6523 152.43 58.7148 152.766 58.7148C153.273 58.7148 153.715 58.6133 154.09 58.4102C154.465 58.207 154.754 57.957 154.957 57.6602C155.168 57.3633 155.277 57.082 155.285 56.8164L156.176 58.2461C156.051 58.5664 155.879 58.8984 155.66 59.2422C155.449 59.5859 155.18 59.9102 154.852 60.2148C154.523 60.5117 154.129 60.7578 153.668 60.9531C153.207 61.1406 152.66 61.2344 152.027 61.2344C151.223 61.2344 150.492 61.0742 149.836 60.7539C149.188 60.4258 148.672 59.9766 148.289 59.4062C147.914 58.8281 147.727 58.1719 147.727 57.4375C147.727 56.7734 147.852 56.1836 148.102 55.668C148.352 55.1523 148.719 54.7188 149.203 54.3672C149.695 54.0078 150.309 53.7383 151.043 53.5586C151.777 53.3711 152.629 53.2773 153.598 53.2773H155.555ZM164.484 51.0859V61H161.109V48.3203H164.285L164.484 51.0859ZM168.305 48.2383L168.246 51.3672C168.082 51.3438 167.883 51.3242 167.648 51.3086C167.422 51.2852 167.215 51.2734 167.027 51.2734C166.551 51.2734 166.137 51.3359 165.785 51.4609C165.441 51.5781 165.152 51.7539 164.918 51.9883C164.691 52.2227 164.52 52.5078 164.402 52.8438C164.293 53.1797 164.23 53.5625 164.215 53.9922L163.535 53.7812C163.535 52.9609 163.617 52.207 163.781 51.5195C163.945 50.8242 164.184 50.2188 164.496 49.7031C164.816 49.1875 165.207 48.7891 165.668 48.5078C166.129 48.2266 166.656 48.0859 167.25 48.0859C167.438 48.0859 167.629 48.1016 167.824 48.1328C168.02 48.1562 168.18 48.1914 168.305 48.2383ZM176.695 48.3203V50.7109H169.312V48.3203H176.695ZM171.141 45.1914H174.516V57.1797C174.516 57.5469 174.562 57.8281 174.656 58.0234C174.758 58.2188 174.906 58.3555 175.102 58.4336C175.297 58.5039 175.543 58.5391 175.84 58.5391C176.051 58.5391 176.238 58.5312 176.402 58.5156C176.574 58.4922 176.719 58.4688 176.836 58.4453L176.848 60.9297C176.559 61.0234 176.246 61.0977 175.91 61.1523C175.574 61.207 175.203 61.2344 174.797 61.2344C174.055 61.2344 173.406 61.1133 172.852 60.8711C172.305 60.6211 171.883 60.2227 171.586 59.6758C171.289 59.1289 171.141 58.4102 171.141 57.5195V45.1914ZM188.719 55.3398H192.223C192.152 56.4883 191.836 57.5078 191.273 58.3984C190.719 59.2891 189.941 59.9844 188.941 60.4844C187.949 60.9844 186.754 61.2344 185.355 61.2344C184.262 61.2344 183.281 61.0469 182.414 60.6719C181.547 60.2891 180.805 59.7422 180.188 59.0312C179.578 58.3203 179.113 57.4609 178.793 56.4531C178.473 55.4453 178.312 54.3164 178.312 53.0664V51.8828C178.312 50.6328 178.477 49.5039 178.805 48.4961C179.141 47.4805 179.617 46.6172 180.234 45.9062C180.859 45.1953 181.605 44.6484 182.473 44.2656C183.34 43.8828 184.309 43.6914 185.379 43.6914C186.801 43.6914 188 43.9492 188.977 44.4648C189.961 44.9805 190.723 45.6914 191.262 46.5977C191.809 47.5039 192.137 48.5352 192.246 49.6914H188.73C188.691 49.0039 188.555 48.4219 188.32 47.9453C188.086 47.4609 187.73 47.0977 187.254 46.8555C186.785 46.6055 186.16 46.4805 185.379 46.4805C184.793 46.4805 184.281 46.5898 183.844 46.8086C183.406 47.0273 183.039 47.3594 182.742 47.8047C182.445 48.25 182.223 48.8125 182.074 49.4922C181.934 50.1641 181.863 50.9531 181.863 51.8594V53.0664C181.863 53.9492 181.93 54.7266 182.062 55.3984C182.195 56.0625 182.398 56.625 182.672 57.0859C182.953 57.5391 183.312 57.8828 183.75 58.1172C184.195 58.3438 184.73 58.457 185.355 58.457C186.09 58.457 186.695 58.3398 187.172 58.1055C187.648 57.8711 188.012 57.5234 188.262 57.0625C188.52 56.6016 188.672 56.0273 188.719 55.3398ZM201.164 58.1406V52.4922C201.164 52.0859 201.098 51.7383 200.965 51.4492C200.832 51.1523 200.625 50.9219 200.344 50.7578C200.07 50.5938 199.715 50.5117 199.277 50.5117C198.902 50.5117 198.578 50.5781 198.305 50.7109C198.031 50.8359 197.82 51.0195 197.672 51.2617C197.523 51.4961 197.449 51.7734 197.449 52.0938H194.074C194.074 51.5547 194.199 51.043 194.449 50.5586C194.699 50.0742 195.062 49.6484 195.539 49.2812C196.016 48.9062 196.582 48.6133 197.238 48.4023C197.902 48.1914 198.645 48.0859 199.465 48.0859C200.449 48.0859 201.324 48.25 202.09 48.5781C202.855 48.9062 203.457 49.3984 203.895 50.0547C204.34 50.7109 204.562 51.5312 204.562 52.5156V57.9414C204.562 58.6367 204.605 59.207 204.691 59.6523C204.777 60.0898 204.902 60.4727 205.066 60.8008V61H201.656C201.492 60.6562 201.367 60.2266 201.281 59.7109C201.203 59.1875 201.164 58.6641 201.164 58.1406ZM201.609 53.2773L201.633 55.1875H199.746C199.301 55.1875 198.914 55.2383 198.586 55.3398C198.258 55.4414 197.988 55.5859 197.777 55.7734C197.566 55.9531 197.41 56.1641 197.309 56.4062C197.215 56.6484 197.168 56.9141 197.168 57.2031C197.168 57.4922 197.234 57.7539 197.367 57.9883C197.5 58.2148 197.691 58.3945 197.941 58.5273C198.191 58.6523 198.484 58.7148 198.82 58.7148C199.328 58.7148 199.77 58.6133 200.145 58.4102C200.52 58.207 200.809 57.957 201.012 57.6602C201.223 57.3633 201.332 57.082 201.34 56.8164L202.23 58.2461C202.105 58.5664 201.934 58.8984 201.715 59.2422C201.504 59.5859 201.234 59.9102 200.906 60.2148C200.578 60.5117 200.184 60.7578 199.723 60.9531C199.262 61.1406 198.715 61.2344 198.082 61.2344C197.277 61.2344 196.547 61.0742 195.891 60.7539C195.242 60.4258 194.727 59.9766 194.344 59.4062C193.969 58.8281 193.781 58.1719 193.781 57.4375C193.781 56.7734 193.906 56.1836 194.156 55.668C194.406 55.1523 194.773 54.7188 195.258 54.3672C195.75 54.0078 196.363 53.7383 197.098 53.5586C197.832 53.3711 198.684 53.2773 199.652 53.2773H201.609ZM210.539 50.9453V61H207.152V48.3203H210.328L210.539 50.9453ZM210.07 54.2148H209.133C209.133 53.332 209.238 52.5195 209.449 51.7773C209.668 51.0273 209.984 50.3789 210.398 49.832C210.82 49.2773 211.34 48.8477 211.957 48.543C212.574 48.2383 213.289 48.0859 214.102 48.0859C214.664 48.0859 215.18 48.1719 215.648 48.3438C216.117 48.5078 216.52 48.7695 216.855 49.1289C217.199 49.4805 217.465 49.9414 217.652 50.5117C217.84 51.0742 217.934 51.75 217.934 52.5391V61H214.559V52.9141C214.559 52.3359 214.48 51.8906 214.324 51.5781C214.168 51.2656 213.945 51.0469 213.656 50.9219C213.375 50.7969 213.035 50.7344 212.637 50.7344C212.199 50.7344 211.816 50.8242 211.488 51.0039C211.168 51.1836 210.902 51.4336 210.691 51.7539C210.48 52.0664 210.324 52.4336 210.223 52.8555C210.121 53.2773 210.07 53.7305 210.07 54.2148ZM217.617 53.8281L216.41 53.9805C216.41 53.1523 216.512 52.3828 216.715 51.6719C216.926 50.9609 217.234 50.3359 217.641 49.7969C218.055 49.2578 218.566 48.8398 219.176 48.543C219.785 48.2383 220.488 48.0859 221.285 48.0859C221.895 48.0859 222.449 48.1758 222.949 48.3555C223.449 48.5273 223.875 48.8047 224.227 49.1875C224.586 49.5625 224.859 50.0547 225.047 50.6641C225.242 51.2734 225.34 52.0195 225.34 52.9023V61H221.953V52.9023C221.953 52.3164 221.875 51.8711 221.719 51.5664C221.57 51.2539 221.352 51.0391 221.062 50.9219C220.781 50.7969 220.445 50.7344 220.055 50.7344C219.648 50.7344 219.293 50.8164 218.988 50.9805C218.684 51.1367 218.43 51.3555 218.227 51.6367C218.023 51.918 217.871 52.2461 217.77 52.6211C217.668 52.9883 217.617 53.3906 217.617 53.8281ZM231.328 50.7578V65.875H227.953V48.3203H231.082L231.328 50.7578ZM239.355 54.5195V54.7656C239.355 55.6875 239.246 56.543 239.027 57.332C238.816 58.1211 238.504 58.8086 238.09 59.3945C237.676 59.9727 237.16 60.4258 236.543 60.7539C235.934 61.0742 235.23 61.2344 234.434 61.2344C233.66 61.2344 232.988 61.0781 232.418 60.7656C231.848 60.4531 231.367 60.0156 230.977 59.4531C230.594 58.8828 230.285 58.2227 230.051 57.4727C229.816 56.7227 229.637 55.918 229.512 55.0586V54.4141C229.637 53.4922 229.816 52.6484 230.051 51.8828C230.285 51.1094 230.594 50.4414 230.977 49.8789C231.367 49.3086 231.844 48.8672 232.406 48.5547C232.977 48.2422 233.645 48.0859 234.41 48.0859C235.215 48.0859 235.922 48.2383 236.531 48.543C237.148 48.8477 237.664 49.2852 238.078 49.8555C238.5 50.4258 238.816 51.1055 239.027 51.8945C239.246 52.6836 239.355 53.5586 239.355 54.5195ZM235.969 54.7656V54.5195C235.969 53.9805 235.922 53.4844 235.828 53.0312C235.742 52.5703 235.602 52.168 235.406 51.8242C235.219 51.4805 234.969 51.2148 234.656 51.0273C234.352 50.832 233.98 50.7344 233.543 50.7344C233.082 50.7344 232.688 50.8086 232.359 50.957C232.039 51.1055 231.777 51.3203 231.574 51.6016C231.371 51.8828 231.219 52.2188 231.117 52.6094C231.016 53 230.953 53.4414 230.93 53.9336V55.5625C230.969 56.1406 231.078 56.6602 231.258 57.1211C231.438 57.5742 231.715 57.9336 232.09 58.1992C232.465 58.4648 232.957 58.5977 233.566 58.5977C234.012 58.5977 234.387 58.5 234.691 58.3047C234.996 58.1016 235.242 57.8242 235.43 57.4727C235.625 57.1211 235.762 56.7148 235.84 56.2539C235.926 55.793 235.969 55.2969 235.969 54.7656ZM248.953 57.9648V48.3203H252.328V61H249.152L248.953 57.9648ZM249.328 55.3633L250.324 55.3398C250.324 56.1836 250.227 56.9688 250.031 57.6953C249.836 58.4141 249.543 59.0391 249.152 59.5703C248.762 60.0938 248.27 60.5039 247.676 60.8008C247.082 61.0898 246.383 61.2344 245.578 61.2344C244.961 61.2344 244.391 61.1484 243.867 60.9766C243.352 60.7969 242.906 60.5195 242.531 60.1445C242.164 59.7617 241.875 59.2734 241.664 58.6797C241.461 58.0781 241.359 57.3555 241.359 56.5117V48.3203H244.734V56.5352C244.734 56.9102 244.777 57.2266 244.863 57.4844C244.957 57.7422 245.086 57.9531 245.25 58.1172C245.414 58.2812 245.605 58.3984 245.824 58.4688C246.051 58.5391 246.301 58.5742 246.574 58.5742C247.27 58.5742 247.816 58.4336 248.215 58.1523C248.621 57.8711 248.906 57.4883 249.07 57.0039C249.242 56.5117 249.328 55.9648 249.328 55.3633ZM261.762 57.4961C261.762 57.2539 261.691 57.0352 261.551 56.8398C261.41 56.6445 261.148 56.4648 260.766 56.3008C260.391 56.1289 259.848 55.9727 259.137 55.832C258.496 55.6914 257.898 55.5156 257.344 55.3047C256.797 55.0859 256.32 54.8242 255.914 54.5195C255.516 54.2148 255.203 53.8555 254.977 53.4414C254.75 53.0195 254.637 52.5391 254.637 52C254.637 51.4688 254.75 50.9688 254.977 50.5C255.211 50.0312 255.543 49.6172 255.973 49.2578C256.41 48.8906 256.941 48.6055 257.566 48.4023C258.199 48.1914 258.91 48.0859 259.699 48.0859C260.801 48.0859 261.746 48.2617 262.535 48.6133C263.332 48.9648 263.941 49.4492 264.363 50.0664C264.793 50.6758 265.008 51.3711 265.008 52.1523H261.633C261.633 51.8242 261.562 51.5312 261.422 51.2734C261.289 51.0078 261.078 50.8008 260.789 50.6523C260.508 50.4961 260.141 50.418 259.688 50.418C259.312 50.418 258.988 50.4844 258.715 50.6172C258.441 50.7422 258.23 50.9141 258.082 51.1328C257.941 51.3438 257.871 51.5781 257.871 51.8359C257.871 52.0312 257.91 52.207 257.988 52.3633C258.074 52.5117 258.211 52.6484 258.398 52.7734C258.586 52.8984 258.828 53.0156 259.125 53.125C259.43 53.2266 259.805 53.3203 260.25 53.4062C261.164 53.5938 261.98 53.8398 262.699 54.1445C263.418 54.4414 263.988 54.8477 264.41 55.3633C264.832 55.8711 265.043 56.5391 265.043 57.3672C265.043 57.9297 264.918 58.4453 264.668 58.9141C264.418 59.3828 264.059 59.793 263.59 60.1445C263.121 60.4883 262.559 60.7578 261.902 60.9531C261.254 61.1406 260.523 61.2344 259.711 61.2344C258.531 61.2344 257.531 61.0234 256.711 60.6016C255.898 60.1797 255.281 59.6445 254.859 58.9961C254.445 58.3398 254.238 57.668 254.238 56.9805H257.438C257.453 57.4414 257.57 57.8125 257.789 58.0938C258.016 58.375 258.301 58.5781 258.645 58.7031C258.996 58.8281 259.375 58.8906 259.781 58.8906C260.219 58.8906 260.582 58.832 260.871 58.7148C261.16 58.5898 261.379 58.4258 261.527 58.2227C261.684 58.0117 261.762 57.7695 261.762 57.4961Z" fill="#888888"/>
<path d="M104.344 84.875V119H96.1406V84.875H104.344ZM117.727 99.0078V119H109.828V93.6406H117.234L117.727 99.0078ZM116.766 105.453L114.961 105.5C114.961 103.719 115.172 102.078 115.594 100.578C116.016 99.0781 116.641 97.7734 117.469 96.6641C118.297 95.5547 119.312 94.6953 120.516 94.0859C121.734 93.4766 123.141 93.1719 124.734 93.1719C125.844 93.1719 126.852 93.3438 127.758 93.6875C128.664 94.0156 129.445 94.5391 130.102 95.2578C130.758 95.9609 131.258 96.8828 131.602 98.0234C131.961 99.1484 132.141 100.5 132.141 102.078V119H124.242V103.086C124.242 102.008 124.117 101.195 123.867 100.648C123.633 100.102 123.289 99.7344 122.836 99.5469C122.383 99.3594 121.828 99.2656 121.172 99.2656C120.484 99.2656 119.867 99.4219 119.32 99.7344C118.773 100.047 118.305 100.484 117.914 101.047C117.539 101.594 117.25 102.242 117.047 102.992C116.859 103.742 116.766 104.562 116.766 105.453ZM131.25 105.453L129.047 105.5C129.047 103.719 129.242 102.078 129.633 100.578C130.039 99.0781 130.641 97.7734 131.438 96.6641C132.25 95.5547 133.258 94.6953 134.461 94.0859C135.664 93.4766 137.062 93.1719 138.656 93.1719C139.812 93.1719 140.875 93.3438 141.844 93.6875C142.812 94.0312 143.648 94.5859 144.352 95.3516C145.055 96.1172 145.602 97.1328 145.992 98.3984C146.383 99.6484 146.578 101.195 146.578 103.039V119H138.656V103.039C138.656 101.992 138.531 101.203 138.281 100.672C138.047 100.125 137.703 99.7578 137.25 99.5703C136.797 99.3672 136.258 99.2656 135.633 99.2656C134.883 99.2656 134.234 99.4219 133.688 99.7344C133.141 100.047 132.68 100.484 132.305 101.047C131.945 101.594 131.68 102.242 131.508 102.992C131.336 103.742 131.25 104.562 131.25 105.453ZM159.07 98.5156V128.75H151.172V93.6406H158.531L159.07 98.5156ZM174.633 106.016V106.508C174.633 108.352 174.422 110.062 174 111.641C173.578 113.219 172.953 114.594 172.125 115.766C171.297 116.938 170.266 117.852 169.031 118.508C167.812 119.148 166.398 119.469 164.789 119.469C163.273 119.469 161.969 119.133 160.875 118.461C159.781 117.789 158.867 116.859 158.133 115.672C157.398 114.484 156.805 113.125 156.352 111.594C155.898 110.062 155.539 108.445 155.273 106.742V106.109C155.539 104.281 155.898 102.586 156.352 101.023C156.805 99.4453 157.398 98.0703 158.133 96.8984C158.867 95.7266 159.773 94.8125 160.852 94.1562C161.945 93.5 163.25 93.1719 164.766 93.1719C166.375 93.1719 167.789 93.4766 169.008 94.0859C170.242 94.6953 171.273 95.5703 172.102 96.7109C172.945 97.8359 173.578 99.1875 174 100.766C174.422 102.344 174.633 104.094 174.633 106.016ZM166.734 106.508V106.016C166.734 105.031 166.664 104.133 166.523 103.32C166.383 102.492 166.156 101.773 165.844 101.164C165.547 100.555 165.148 100.086 164.648 99.7578C164.148 99.4297 163.531 99.2656 162.797 99.2656C161.953 99.2656 161.242 99.3984 160.664 99.6641C160.102 99.9141 159.648 100.305 159.305 100.836C158.977 101.352 158.742 102 158.602 102.781C158.477 103.547 158.422 104.445 158.438 105.477V107.398C158.406 108.586 158.523 109.633 158.789 110.539C159.055 111.43 159.516 112.125 160.172 112.625C160.828 113.125 161.719 113.375 162.844 113.375C163.594 113.375 164.219 113.203 164.719 112.859C165.219 112.5 165.617 112.008 165.914 111.383C166.211 110.742 166.422 110.008 166.547 109.18C166.672 108.352 166.734 107.461 166.734 106.508ZM186.492 83V119H178.57V83H186.492ZM203.648 119.469C201.586 119.469 199.742 119.148 198.117 118.508C196.492 117.852 195.117 116.953 193.992 115.812C192.883 114.672 192.031 113.359 191.438 111.875C190.859 110.391 190.57 108.82 190.57 107.164V106.273C190.57 104.414 190.828 102.695 191.344 101.117C191.859 99.5234 192.625 98.1328 193.641 96.9453C194.656 95.7578 195.93 94.8359 197.461 94.1797C198.992 93.5078 200.773 93.1719 202.805 93.1719C204.602 93.1719 206.211 93.4609 207.633 94.0391C209.055 94.6172 210.258 95.4453 211.242 96.5234C212.242 97.6016 213 98.9062 213.516 100.438C214.047 101.969 214.312 103.688 214.312 105.594V108.805H193.594V103.859H206.602V103.25C206.617 102.406 206.469 101.688 206.156 101.094C205.859 100.5 205.422 100.047 204.844 99.7344C204.266 99.4219 203.562 99.2656 202.734 99.2656C201.875 99.2656 201.164 99.4531 200.602 99.8281C200.055 100.203 199.625 100.719 199.312 101.375C199.016 102.016 198.805 102.758 198.68 103.602C198.555 104.445 198.492 105.336 198.492 106.273V107.164C198.492 108.102 198.617 108.953 198.867 109.719C199.133 110.484 199.508 111.141 199.992 111.688C200.492 112.219 201.086 112.633 201.773 112.93C202.477 113.227 203.273 113.375 204.164 113.375C205.242 113.375 206.305 113.172 207.352 112.766C208.398 112.359 209.297 111.688 210.047 110.75L213.633 115.016C213.117 115.75 212.383 116.461 211.43 117.148C210.492 117.836 209.367 118.398 208.055 118.836C206.742 119.258 205.273 119.469 203.648 119.469ZM225.492 99.0078V119H217.594V93.6406H225L225.492 99.0078ZM224.531 105.453L222.727 105.5C222.727 103.719 222.938 102.078 223.359 100.578C223.781 99.0781 224.406 97.7734 225.234 96.6641C226.062 95.5547 227.078 94.6953 228.281 94.0859C229.5 93.4766 230.906 93.1719 232.5 93.1719C233.609 93.1719 234.617 93.3438 235.523 93.6875C236.43 94.0156 237.211 94.5391 237.867 95.2578C238.523 95.9609 239.023 96.8828 239.367 98.0234C239.727 99.1484 239.906 100.5 239.906 102.078V119H232.008V103.086C232.008 102.008 231.883 101.195 231.633 100.648C231.398 100.102 231.055 99.7344 230.602 99.5469C230.148 99.3594 229.594 99.2656 228.938 99.2656C228.25 99.2656 227.633 99.4219 227.086 99.7344C226.539 100.047 226.07 100.484 225.68 101.047C225.305 101.594 225.016 102.242 224.812 102.992C224.625 103.742 224.531 104.562 224.531 105.453ZM239.016 105.453L236.812 105.5C236.812 103.719 237.008 102.078 237.398 100.578C237.805 99.0781 238.406 97.7734 239.203 96.6641C240.016 95.5547 241.023 94.6953 242.227 94.0859C243.43 93.4766 244.828 93.1719 246.422 93.1719C247.578 93.1719 248.641 93.3438 249.609 93.6875C250.578 94.0312 251.414 94.5859 252.117 95.3516C252.82 96.1172 253.367 97.1328 253.758 98.3984C254.148 99.6484 254.344 101.195 254.344 103.039V119H246.422V103.039C246.422 101.992 246.297 101.203 246.047 100.672C245.812 100.125 245.469 99.7578 245.016 99.5703C244.562 99.3672 244.023 99.2656 243.398 99.2656C242.648 99.2656 242 99.4219 241.453 99.7344C240.906 100.047 240.445 100.484 240.07 101.047C239.711 101.594 239.445 102.242 239.273 102.992C239.102 103.742 239.016 104.562 239.016 105.453ZM271.148 119.469C269.086 119.469 267.242 119.148 265.617 118.508C263.992 117.852 262.617 116.953 261.492 115.812C260.383 114.672 259.531 113.359 258.938 111.875C258.359 110.391 258.07 108.82 258.07 107.164V106.273C258.07 104.414 258.328 102.695 258.844 101.117C259.359 99.5234 260.125 98.1328 261.141 96.9453C262.156 95.7578 263.43 94.8359 264.961 94.1797C266.492 93.5078 268.273 93.1719 270.305 93.1719C272.102 93.1719 273.711 93.4609 275.133 94.0391C276.555 94.6172 277.758 95.4453 278.742 96.5234C279.742 97.6016 280.5 98.9062 281.016 100.438C281.547 101.969 281.812 103.688 281.812 105.594V108.805H261.094V103.859H274.102V103.25C274.117 102.406 273.969 101.688 273.656 101.094C273.359 100.5 272.922 100.047 272.344 99.7344C271.766 99.4219 271.062 99.2656 270.234 99.2656C269.375 99.2656 268.664 99.4531 268.102 99.8281C267.555 100.203 267.125 100.719 266.812 101.375C266.516 102.016 266.305 102.758 266.18 103.602C266.055 104.445 265.992 105.336 265.992 106.273V107.164C265.992 108.102 266.117 108.953 266.367 109.719C266.633 110.484 267.008 111.141 267.492 111.688C267.992 112.219 268.586 112.633 269.273 112.93C269.977 113.227 270.773 113.375 271.664 113.375C272.742 113.375 273.805 113.172 274.852 112.766C275.898 112.359 276.797 111.688 277.547 110.75L281.133 115.016C280.617 115.75 279.883 116.461 278.93 117.148C277.992 117.836 276.867 118.398 275.555 118.836C274.242 119.258 272.773 119.469 271.148 119.469ZM292.781 99.0547V119H284.883V93.6406H292.289L292.781 99.0547ZM291.844 105.453L289.992 105.5C289.992 103.562 290.227 101.836 290.695 100.32C291.164 98.7891 291.828 97.4922 292.688 96.4297C293.547 95.3672 294.57 94.5625 295.758 94.0156C296.961 93.4531 298.297 93.1719 299.766 93.1719C300.938 93.1719 302.008 93.3438 302.977 93.6875C303.961 94.0312 304.805 94.5859 305.508 95.3516C306.227 96.1172 306.773 97.1328 307.148 98.3984C307.539 99.6484 307.734 101.195 307.734 103.039V119H299.789V103.016C299.789 102 299.648 101.227 299.367 100.695C299.086 100.148 298.68 99.7734 298.148 99.5703C297.617 99.3672 296.969 99.2656 296.203 99.2656C295.391 99.2656 294.703 99.4219 294.141 99.7344C293.578 100.047 293.125 100.484 292.781 101.047C292.453 101.594 292.211 102.242 292.055 102.992C291.914 103.742 291.844 104.562 291.844 105.453ZM325.477 93.6406V99.125H310.195V93.6406H325.477ZM313.406 87.3359H321.305V110.727C321.305 111.398 321.383 111.922 321.539 112.297C321.695 112.656 321.961 112.914 322.336 113.07C322.727 113.211 323.242 113.281 323.883 113.281C324.336 113.281 324.711 113.273 325.008 113.258C325.305 113.227 325.586 113.188 325.852 113.141V118.789C325.18 119.008 324.477 119.172 323.742 119.281C323.008 119.406 322.227 119.469 321.398 119.469C319.711 119.469 318.266 119.203 317.062 118.672C315.875 118.141 314.969 117.305 314.344 116.164C313.719 115.023 313.406 113.539 313.406 111.711V87.3359ZM341.789 112.625V102.172C341.789 101.453 341.688 100.836 341.484 100.32C341.281 99.8047 340.961 99.4062 340.523 99.125C340.086 98.8281 339.5 98.6797 338.766 98.6797C338.172 98.6797 337.664 98.7812 337.242 98.9844C336.82 99.1875 336.5 99.4922 336.281 99.8984C336.062 100.305 335.953 100.82 335.953 101.445H328.055C328.055 100.273 328.312 99.1875 328.828 98.1875C329.359 97.1719 330.109 96.2891 331.078 95.5391C332.062 94.7891 333.234 94.2109 334.594 93.8047C335.969 93.3828 337.5 93.1719 339.188 93.1719C341.203 93.1719 343 93.5078 344.578 94.1797C346.172 94.8516 347.43 95.8594 348.352 97.2031C349.273 98.5312 349.734 100.203 349.734 102.219V112.602C349.734 114.258 349.828 115.516 350.016 116.375C350.203 117.219 350.469 117.961 350.812 118.602V119H342.891C342.516 118.219 342.234 117.266 342.047 116.141C341.875 115 341.789 113.828 341.789 112.625ZM342.75 103.508L342.797 107.727H339.305C338.57 107.727 337.945 107.828 337.43 108.031C336.93 108.234 336.523 108.516 336.211 108.875C335.914 109.219 335.695 109.609 335.555 110.047C335.43 110.484 335.367 110.945 335.367 111.43C335.367 111.898 335.477 112.32 335.695 112.695C335.93 113.055 336.242 113.336 336.633 113.539C337.023 113.742 337.461 113.844 337.945 113.844C338.82 113.844 339.562 113.68 340.172 113.352C340.797 113.008 341.273 112.594 341.602 112.109C341.93 111.625 342.094 111.172 342.094 110.75L343.828 113.984C343.516 114.609 343.156 115.242 342.75 115.883C342.359 116.523 341.867 117.117 341.273 117.664C340.695 118.195 339.984 118.633 339.141 118.977C338.297 119.305 337.273 119.469 336.07 119.469C334.508 119.469 333.07 119.148 331.758 118.508C330.461 117.867 329.422 116.977 328.641 115.836C327.859 114.68 327.469 113.352 327.469 111.852C327.469 110.539 327.703 109.367 328.172 108.336C328.656 107.305 329.383 106.43 330.352 105.711C331.32 104.992 332.555 104.445 334.055 104.07C335.555 103.695 337.32 103.508 339.352 103.508H342.75ZM367.477 93.6406V99.125H352.195V93.6406H367.477ZM355.406 87.3359H363.305V110.727C363.305 111.398 363.383 111.922 363.539 112.297C363.695 112.656 363.961 112.914 364.336 113.07C364.727 113.211 365.242 113.281 365.883 113.281C366.336 113.281 366.711 113.273 367.008 113.258C367.305 113.227 367.586 113.188 367.852 113.141V118.789C367.18 119.008 366.477 119.172 365.742 119.281C365.008 119.406 364.227 119.469 363.398 119.469C361.711 119.469 360.266 119.203 359.062 118.672C357.875 118.141 356.969 117.305 356.344 116.164C355.719 115.023 355.406 113.539 355.406 111.711V87.3359ZM378.961 93.6406V119H371.039V93.6406H378.961ZM370.57 87.1016C370.57 85.9766 370.977 85.0547 371.789 84.3359C372.602 83.6172 373.656 83.2578 374.953 83.2578C376.25 83.2578 377.305 83.6172 378.117 84.3359C378.93 85.0547 379.336 85.9766 379.336 87.1016C379.336 88.2266 378.93 89.1484 378.117 89.8672C377.305 90.5859 376.25 90.9453 374.953 90.9453C373.656 90.9453 372.602 90.5859 371.789 89.8672C370.977 89.1484 370.57 88.2266 370.57 87.1016ZM382.852 106.578V106.086C382.852 104.227 383.117 102.516 383.648 100.953C384.18 99.375 384.961 98.0078 385.992 96.8516C387.023 95.6953 388.297 94.7969 389.812 94.1562C391.328 93.5 393.078 93.1719 395.062 93.1719C397.062 93.1719 398.82 93.5 400.336 94.1562C401.867 94.7969 403.148 95.6953 404.18 96.8516C405.211 98.0078 405.992 99.375 406.523 100.953C407.055 102.516 407.32 104.227 407.32 106.086V106.578C407.32 108.422 407.055 110.133 406.523 111.711C405.992 113.273 405.211 114.641 404.18 115.812C403.148 116.969 401.875 117.867 400.359 118.508C398.844 119.148 397.094 119.469 395.109 119.469C393.125 119.469 391.367 119.148 389.836 118.508C388.305 117.867 387.023 116.969 385.992 115.812C384.961 114.641 384.18 113.273 383.648 111.711C383.117 110.133 382.852 108.422 382.852 106.578ZM390.75 106.086V106.578C390.75 107.531 390.82 108.422 390.961 109.25C391.102 110.078 391.336 110.805 391.664 111.43C391.992 112.039 392.438 112.516 393 112.859C393.562 113.203 394.266 113.375 395.109 113.375C395.938 113.375 396.625 113.203 397.172 112.859C397.734 112.516 398.18 112.039 398.508 111.43C398.836 110.805 399.07 110.078 399.211 109.25C399.352 108.422 399.422 107.531 399.422 106.578V106.086C399.422 105.164 399.352 104.297 399.211 103.484C399.07 102.656 398.836 101.93 398.508 101.305C398.18 100.664 397.734 100.164 397.172 99.8047C396.609 99.4453 395.906 99.2656 395.062 99.2656C394.234 99.2656 393.539 99.4453 392.977 99.8047C392.43 100.164 391.992 100.664 391.664 101.305C391.336 101.93 391.102 102.656 390.961 103.484C390.82 104.297 390.75 105.164 390.75 106.086ZM418.594 99.0547V119H410.695V93.6406H418.102L418.594 99.0547ZM417.656 105.453L415.805 105.5C415.805 103.562 416.039 101.836 416.508 100.32C416.977 98.7891 417.641 97.4922 418.5 96.4297C419.359 95.3672 420.383 94.5625 421.57 94.0156C422.773 93.4531 424.109 93.1719 425.578 93.1719C426.75 93.1719 427.82 93.3438 428.789 93.6875C429.773 94.0312 430.617 94.5859 431.32 95.3516C432.039 96.1172 432.586 97.1328 432.961 98.3984C433.352 99.6484 433.547 101.195 433.547 103.039V119H425.602V103.016C425.602 102 425.461 101.227 425.18 100.695C424.898 100.148 424.492 99.7734 423.961 99.5703C423.43 99.3672 422.781 99.2656 422.016 99.2656C421.203 99.2656 420.516 99.4219 419.953 99.7344C419.391 100.047 418.938 100.484 418.594 101.047C418.266 101.594 418.023 102.242 417.867 102.992C417.727 103.742 417.656 104.562 417.656 105.453Z" fill="black"/>
<path d="M1134 0H1348C1356.28 0 1363 6.71573 1363 15V148C1363 156.284 1356.28 163 1348 163H1134V0Z" fill="#123962"/>
<path d="M1280.07 47.5H1216.93L1214.5 49.9286V113.071L1216.93 115.5H1280.07L1282.5 113.071V49.9286L1280.07 47.5ZM1277.64 110.643H1233.93V100.929H1245.1C1246.56 103.843 1249.96 105.786 1253.36 105.786C1258.7 105.786 1263.07 101.414 1263.07 96.0714C1263.07 90.7286 1258.7 86.3571 1253.36 86.3571C1248.01 86.3571 1243.64 90.7286 1243.64 96.0714H1229.07V110.643H1219.36V52.3571H1229.07V63.5286C1226.16 64.9857 1224.21 68.3857 1224.21 71.7857C1224.21 77.1286 1228.59 81.5 1233.93 81.5C1239.27 81.5 1243.64 77.1286 1243.64 71.7857H1253.36C1253.36 77.1286 1257.73 81.5 1263.07 81.5C1268.41 81.5 1272.79 77.1286 1272.79 71.7857C1272.79 66.4429 1268.41 62.0714 1263.07 62.0714C1259.67 62.0714 1256.27 64.0143 1254.81 66.9286H1242.19C1240.73 64.0143 1237.33 62.0714 1233.93 62.0714V52.3571H1277.64V110.643ZM1248.5 96.0714C1248.5 93.1571 1250.44 91.2143 1253.36 91.2143C1256.27 91.2143 1258.21 93.1571 1258.21 96.0714C1258.21 98.9857 1256.27 100.929 1253.36 100.929C1250.44 100.929 1248.5 98.9857 1248.5 96.0714ZM1233.93 66.9286C1236.84 66.9286 1238.79 68.8714 1238.79 71.7857C1238.79 74.7 1236.84 76.6429 1233.93 76.6429C1231.01 76.6429 1229.07 74.7 1229.07 71.7857C1229.07 68.8714 1231.01 66.9286 1233.93 66.9286ZM1263.07 66.9286C1265.99 66.9286 1267.93 68.8714 1267.93 71.7857C1267.93 74.7 1265.99 76.6429 1263.07 76.6429C1260.16 76.6429 1258.21 74.7 1258.21 71.7857C1258.21 68.8714 1260.16 66.9286 1263.07 66.9286Z" fill="white"/>
</svg>
