<svg width="1363" height="163" viewBox="0 0 1363 163" fill="none" xmlns="http://www.w3.org/2000/svg">
<path d="M0 15C0 6.71573 6.71573 0 15 0H37V163H15C6.71573 163 0 156.284 0 148V15Z" fill="#424242"/>
<rect width="1097" height="163" transform="translate(37)" fill="#F0F0F0"/>
<path d="M101.906 53.9219L94.3945 51.2383V48.0859L104.602 52.375V54.6367L101.906 53.9219ZM94.3945 56.1719L101.918 53.4297L104.602 52.7852V55.0352L94.3945 59.3242V56.1719ZM121.781 56.5352C121.781 56.2305 121.734 55.957 121.641 55.7148C121.555 55.4648 121.391 55.2383 121.148 55.0352C120.906 54.8242 120.566 54.6172 120.129 54.4141C119.691 54.2109 119.125 54 118.43 53.7812C117.656 53.5312 116.922 53.25 116.227 52.9375C115.539 52.625 114.93 52.2617 114.398 51.8477C113.875 51.4258 113.461 50.9375 113.156 50.3828C112.859 49.8281 112.711 49.1836 112.711 48.4492C112.711 47.7383 112.867 47.0938 113.18 46.5156C113.492 45.9297 113.93 45.4297 114.492 45.0156C115.055 44.5938 115.719 44.2695 116.484 44.043C117.258 43.8164 118.105 43.7031 119.027 43.7031C120.285 43.7031 121.383 43.9297 122.32 44.3828C123.258 44.8359 123.984 45.457 124.5 46.2461C125.023 47.0352 125.285 47.9375 125.285 48.9531H121.793C121.793 48.4531 121.688 48.0156 121.477 47.6406C121.273 47.2578 120.961 46.957 120.539 46.7383C120.125 46.5195 119.602 46.4102 118.969 46.4102C118.359 46.4102 117.852 46.5039 117.445 46.6914C117.039 46.8711 116.734 47.1172 116.531 47.4297C116.328 47.7344 116.227 48.0781 116.227 48.4609C116.227 48.75 116.297 49.0117 116.438 49.2461C116.586 49.4805 116.805 49.6992 117.094 49.9023C117.383 50.1055 117.738 50.2969 118.16 50.4766C118.582 50.6562 119.07 50.832 119.625 51.0039C120.555 51.2852 121.371 51.6016 122.074 51.9531C122.785 52.3047 123.379 52.6992 123.855 53.1367C124.332 53.5742 124.691 54.0703 124.934 54.625C125.176 55.1797 125.297 55.8086 125.297 56.5117C125.297 57.2539 125.152 57.918 124.863 58.5039C124.574 59.0898 124.156 59.5859 123.609 59.9922C123.062 60.3984 122.41 60.707 121.652 60.918C120.895 61.1289 120.047 61.2344 119.109 61.2344C118.266 61.2344 117.434 61.125 116.613 60.9062C115.793 60.6797 115.047 60.3398 114.375 59.8867C113.711 59.4336 113.18 58.8555 112.781 58.1523C112.383 57.4492 112.184 56.6172 112.184 55.6562H115.711C115.711 56.1875 115.793 56.6367 115.957 57.0039C116.121 57.3711 116.352 57.668 116.648 57.8945C116.953 58.1211 117.312 58.2852 117.727 58.3867C118.148 58.4883 118.609 58.5391 119.109 58.5391C119.719 58.5391 120.219 58.4531 120.609 58.2812C121.008 58.1094 121.301 57.8711 121.488 57.5664C121.684 57.2617 121.781 56.918 121.781 56.5352ZM130.852 50.9453V61H127.465V48.3203H130.641L130.852 50.9453ZM130.383 54.2148H129.445C129.445 53.332 129.551 52.5195 129.762 51.7773C129.98 51.0273 130.297 50.3789 130.711 49.832C131.133 49.2773 131.652 48.8477 132.27 48.543C132.887 48.2383 133.602 48.0859 134.414 48.0859C134.977 48.0859 135.492 48.1719 135.961 48.3438C136.43 48.5078 136.832 48.7695 137.168 49.1289C137.512 49.4805 137.777 49.9414 137.965 50.5117C138.152 51.0742 138.246 51.75 138.246 52.5391V61H134.871V52.9141C134.871 52.3359 134.793 51.8906 134.637 51.5781C134.48 51.2656 134.258 51.0469 133.969 50.9219C133.688 50.7969 133.348 50.7344 132.949 50.7344C132.512 50.7344 132.129 50.8242 131.801 51.0039C131.48 51.1836 131.215 51.4336 131.004 51.7539C130.793 52.0664 130.637 52.4336 130.535 52.8555C130.434 53.2773 130.383 53.7305 130.383 54.2148ZM137.93 53.8281L136.723 53.9805C136.723 53.1523 136.824 52.3828 137.027 51.6719C137.238 50.9609 137.547 50.3359 137.953 49.7969C138.367 49.2578 138.879 48.8398 139.488 48.543C140.098 48.2383 140.801 48.0859 141.598 48.0859C142.207 48.0859 142.762 48.1758 143.262 48.3555C143.762 48.5273 144.188 48.8047 144.539 49.1875C144.898 49.5625 145.172 50.0547 145.359 50.6641C145.555 51.2734 145.652 52.0195 145.652 52.9023V61H142.266V52.9023C142.266 52.3164 142.188 51.8711 142.031 51.5664C141.883 51.2539 141.664 51.0391 141.375 50.9219C141.094 50.7969 140.758 50.7344 140.367 50.7344C139.961 50.7344 139.605 50.8164 139.301 50.9805C138.996 51.1367 138.742 51.3555 138.539 51.6367C138.336 51.918 138.184 52.2461 138.082 52.6211C137.98 52.9883 137.93 53.3906 137.93 53.8281ZM155.109 58.1406V52.4922C155.109 52.0859 155.043 51.7383 154.91 51.4492C154.777 51.1523 154.57 50.9219 154.289 50.7578C154.016 50.5938 153.66 50.5117 153.223 50.5117C152.848 50.5117 152.523 50.5781 152.25 50.7109C151.977 50.8359 151.766 51.0195 151.617 51.2617C151.469 51.4961 151.395 51.7734 151.395 52.0938H148.02C148.02 51.5547 148.145 51.043 148.395 50.5586C148.645 50.0742 149.008 49.6484 149.484 49.2812C149.961 48.9062 150.527 48.6133 151.184 48.4023C151.848 48.1914 152.59 48.0859 153.41 48.0859C154.395 48.0859 155.27 48.25 156.035 48.5781C156.801 48.9062 157.402 49.3984 157.84 50.0547C158.285 50.7109 158.508 51.5312 158.508 52.5156V57.9414C158.508 58.6367 158.551 59.207 158.637 59.6523C158.723 60.0898 158.848 60.4727 159.012 60.8008V61H155.602C155.438 60.6562 155.312 60.2266 155.227 59.7109C155.148 59.1875 155.109 58.6641 155.109 58.1406ZM155.555 53.2773L155.578 55.1875H153.691C153.246 55.1875 152.859 55.2383 152.531 55.3398C152.203 55.4414 151.934 55.5859 151.723 55.7734C151.512 55.9531 151.355 56.1641 151.254 56.4062C151.16 56.6484 151.113 56.9141 151.113 57.2031C151.113 57.4922 151.18 57.7539 151.312 57.9883C151.445 58.2148 151.637 58.3945 151.887 58.5273C152.137 58.6523 152.43 58.7148 152.766 58.7148C153.273 58.7148 153.715 58.6133 154.09 58.4102C154.465 58.207 154.754 57.957 154.957 57.6602C155.168 57.3633 155.277 57.082 155.285 56.8164L156.176 58.2461C156.051 58.5664 155.879 58.8984 155.66 59.2422C155.449 59.5859 155.18 59.9102 154.852 60.2148C154.523 60.5117 154.129 60.7578 153.668 60.9531C153.207 61.1406 152.66 61.2344 152.027 61.2344C151.223 61.2344 150.492 61.0742 149.836 60.7539C149.188 60.4258 148.672 59.9766 148.289 59.4062C147.914 58.8281 147.727 58.1719 147.727 57.4375C147.727 56.7734 147.852 56.1836 148.102 55.668C148.352 55.1523 148.719 54.7188 149.203 54.3672C149.695 54.0078 150.309 53.7383 151.043 53.5586C151.777 53.3711 152.629 53.2773 153.598 53.2773H155.555ZM164.484 51.0859V61H161.109V48.3203H164.285L164.484 51.0859ZM168.305 48.2383L168.246 51.3672C168.082 51.3438 167.883 51.3242 167.648 51.3086C167.422 51.2852 167.215 51.2734 167.027 51.2734C166.551 51.2734 166.137 51.3359 165.785 51.4609C165.441 51.5781 165.152 51.7539 164.918 51.9883C164.691 52.2227 164.52 52.5078 164.402 52.8438C164.293 53.1797 164.23 53.5625 164.215 53.9922L163.535 53.7812C163.535 52.9609 163.617 52.207 163.781 51.5195C163.945 50.8242 164.184 50.2188 164.496 49.7031C164.816 49.1875 165.207 48.7891 165.668 48.5078C166.129 48.2266 166.656 48.0859 167.25 48.0859C167.438 48.0859 167.629 48.1016 167.824 48.1328C168.02 48.1562 168.18 48.1914 168.305 48.2383ZM176.695 48.3203V50.7109H169.312V48.3203H176.695ZM171.141 45.1914H174.516V57.1797C174.516 57.5469 174.562 57.8281 174.656 58.0234C174.758 58.2188 174.906 58.3555 175.102 58.4336C175.297 58.5039 175.543 58.5391 175.84 58.5391C176.051 58.5391 176.238 58.5312 176.402 58.5156C176.574 58.4922 176.719 58.4688 176.836 58.4453L176.848 60.9297C176.559 61.0234 176.246 61.0977 175.91 61.1523C175.574 61.207 175.203 61.2344 174.797 61.2344C174.055 61.2344 173.406 61.1133 172.852 60.8711C172.305 60.6211 171.883 60.2227 171.586 59.6758C171.289 59.1289 171.141 58.4102 171.141 57.5195V45.1914ZM188.719 55.3398H192.223C192.152 56.4883 191.836 57.5078 191.273 58.3984C190.719 59.2891 189.941 59.9844 188.941 60.4844C187.949 60.9844 186.754 61.2344 185.355 61.2344C184.262 61.2344 183.281 61.0469 182.414 60.6719C181.547 60.2891 180.805 59.7422 180.188 59.0312C179.578 58.3203 179.113 57.4609 178.793 56.4531C178.473 55.4453 178.312 54.3164 178.312 53.0664V51.8828C178.312 50.6328 178.477 49.5039 178.805 48.4961C179.141 47.4805 179.617 46.6172 180.234 45.9062C180.859 45.1953 181.605 44.6484 182.473 44.2656C183.34 43.8828 184.309 43.6914 185.379 43.6914C186.801 43.6914 188 43.9492 188.977 44.4648C189.961 44.9805 190.723 45.6914 191.262 46.5977C191.809 47.5039 192.137 48.5352 192.246 49.6914H188.73C188.691 49.0039 188.555 48.4219 188.32 47.9453C188.086 47.4609 187.73 47.0977 187.254 46.8555C186.785 46.6055 186.16 46.4805 185.379 46.4805C184.793 46.4805 184.281 46.5898 183.844 46.8086C183.406 47.0273 183.039 47.3594 182.742 47.8047C182.445 48.25 182.223 48.8125 182.074 49.4922C181.934 50.1641 181.863 50.9531 181.863 51.8594V53.0664C181.863 53.9492 181.93 54.7266 182.062 55.3984C182.195 56.0625 182.398 56.625 182.672 57.0859C182.953 57.5391 183.312 57.8828 183.75 58.1172C184.195 58.3438 184.73 58.457 185.355 58.457C186.09 58.457 186.695 58.3398 187.172 58.1055C187.648 57.8711 188.012 57.5234 188.262 57.0625C188.52 56.6016 188.672 56.0273 188.719 55.3398ZM201.164 58.1406V52.4922C201.164 52.0859 201.098 51.7383 200.965 51.4492C200.832 51.1523 200.625 50.9219 200.344 50.7578C200.07 50.5938 199.715 50.5117 199.277 50.5117C198.902 50.5117 198.578 50.5781 198.305 50.7109C198.031 50.8359 197.82 51.0195 197.672 51.2617C197.523 51.4961 197.449 51.7734 197.449 52.0938H194.074C194.074 51.5547 194.199 51.043 194.449 50.5586C194.699 50.0742 195.062 49.6484 195.539 49.2812C196.016 48.9062 196.582 48.6133 197.238 48.4023C197.902 48.1914 198.645 48.0859 199.465 48.0859C200.449 48.0859 201.324 48.25 202.09 48.5781C202.855 48.9062 203.457 49.3984 203.895 50.0547C204.34 50.7109 204.562 51.5312 204.562 52.5156V57.9414C204.562 58.6367 204.605 59.207 204.691 59.6523C204.777 60.0898 204.902 60.4727 205.066 60.8008V61H201.656C201.492 60.6562 201.367 60.2266 201.281 59.7109C201.203 59.1875 201.164 58.6641 201.164 58.1406ZM201.609 53.2773L201.633 55.1875H199.746C199.301 55.1875 198.914 55.2383 198.586 55.3398C198.258 55.4414 197.988 55.5859 197.777 55.7734C197.566 55.9531 197.41 56.1641 197.309 56.4062C197.215 56.6484 197.168 56.9141 197.168 57.2031C197.168 57.4922 197.234 57.7539 197.367 57.9883C197.5 58.2148 197.691 58.3945 197.941 58.5273C198.191 58.6523 198.484 58.7148 198.82 58.7148C199.328 58.7148 199.77 58.6133 200.145 58.4102C200.52 58.207 200.809 57.957 201.012 57.6602C201.223 57.3633 201.332 57.082 201.34 56.8164L202.23 58.2461C202.105 58.5664 201.934 58.8984 201.715 59.2422C201.504 59.5859 201.234 59.9102 200.906 60.2148C200.578 60.5117 200.184 60.7578 199.723 60.9531C199.262 61.1406 198.715 61.2344 198.082 61.2344C197.277 61.2344 196.547 61.0742 195.891 60.7539C195.242 60.4258 194.727 59.9766 194.344 59.4062C193.969 58.8281 193.781 58.1719 193.781 57.4375C193.781 56.7734 193.906 56.1836 194.156 55.668C194.406 55.1523 194.773 54.7188 195.258 54.3672C195.75 54.0078 196.363 53.7383 197.098 53.5586C197.832 53.3711 198.684 53.2773 199.652 53.2773H201.609ZM210.539 50.9453V61H207.152V48.3203H210.328L210.539 50.9453ZM210.07 54.2148H209.133C209.133 53.332 209.238 52.5195 209.449 51.7773C209.668 51.0273 209.984 50.3789 210.398 49.832C210.82 49.2773 211.34 48.8477 211.957 48.543C212.574 48.2383 213.289 48.0859 214.102 48.0859C214.664 48.0859 215.18 48.1719 215.648 48.3438C216.117 48.5078 216.52 48.7695 216.855 49.1289C217.199 49.4805 217.465 49.9414 217.652 50.5117C217.84 51.0742 217.934 51.75 217.934 52.5391V61H214.559V52.9141C214.559 52.3359 214.48 51.8906 214.324 51.5781C214.168 51.2656 213.945 51.0469 213.656 50.9219C213.375 50.7969 213.035 50.7344 212.637 50.7344C212.199 50.7344 211.816 50.8242 211.488 51.0039C211.168 51.1836 210.902 51.4336 210.691 51.7539C210.48 52.0664 210.324 52.4336 210.223 52.8555C210.121 53.2773 210.07 53.7305 210.07 54.2148ZM217.617 53.8281L216.41 53.9805C216.41 53.1523 216.512 52.3828 216.715 51.6719C216.926 50.9609 217.234 50.3359 217.641 49.7969C218.055 49.2578 218.566 48.8398 219.176 48.543C219.785 48.2383 220.488 48.0859 221.285 48.0859C221.895 48.0859 222.449 48.1758 222.949 48.3555C223.449 48.5273 223.875 48.8047 224.227 49.1875C224.586 49.5625 224.859 50.0547 225.047 50.6641C225.242 51.2734 225.34 52.0195 225.34 52.9023V61H221.953V52.9023C221.953 52.3164 221.875 51.8711 221.719 51.5664C221.57 51.2539 221.352 51.0391 221.062 50.9219C220.781 50.7969 220.445 50.7344 220.055 50.7344C219.648 50.7344 219.293 50.8164 218.988 50.9805C218.684 51.1367 218.43 51.3555 218.227 51.6367C218.023 51.918 217.871 52.2461 217.77 52.6211C217.668 52.9883 217.617 53.3906 217.617 53.8281ZM231.328 50.7578V65.875H227.953V48.3203H231.082L231.328 50.7578ZM239.355 54.5195V54.7656C239.355 55.6875 239.246 56.543 239.027 57.332C238.816 58.1211 238.504 58.8086 238.09 59.3945C237.676 59.9727 237.16 60.4258 236.543 60.7539C235.934 61.0742 235.23 61.2344 234.434 61.2344C233.66 61.2344 232.988 61.0781 232.418 60.7656C231.848 60.4531 231.367 60.0156 230.977 59.4531C230.594 58.8828 230.285 58.2227 230.051 57.4727C229.816 56.7227 229.637 55.918 229.512 55.0586V54.4141C229.637 53.4922 229.816 52.6484 230.051 51.8828C230.285 51.1094 230.594 50.4414 230.977 49.8789C231.367 49.3086 231.844 48.8672 232.406 48.5547C232.977 48.2422 233.645 48.0859 234.41 48.0859C235.215 48.0859 235.922 48.2383 236.531 48.543C237.148 48.8477 237.664 49.2852 238.078 49.8555C238.5 50.4258 238.816 51.1055 239.027 51.8945C239.246 52.6836 239.355 53.5586 239.355 54.5195ZM235.969 54.7656V54.5195C235.969 53.9805 235.922 53.4844 235.828 53.0312C235.742 52.5703 235.602 52.168 235.406 51.8242C235.219 51.4805 234.969 51.2148 234.656 51.0273C234.352 50.832 233.98 50.7344 233.543 50.7344C233.082 50.7344 232.688 50.8086 232.359 50.957C232.039 51.1055 231.777 51.3203 231.574 51.6016C231.371 51.8828 231.219 52.2188 231.117 52.6094C231.016 53 230.953 53.4414 230.93 53.9336V55.5625C230.969 56.1406 231.078 56.6602 231.258 57.1211C231.438 57.5742 231.715 57.9336 232.09 58.1992C232.465 58.4648 232.957 58.5977 233.566 58.5977C234.012 58.5977 234.387 58.5 234.691 58.3047C234.996 58.1016 235.242 57.8242 235.43 57.4727C235.625 57.1211 235.762 56.7148 235.84 56.2539C235.926 55.793 235.969 55.2969 235.969 54.7656ZM248.953 57.9648V48.3203H252.328V61H249.152L248.953 57.9648ZM249.328 55.3633L250.324 55.3398C250.324 56.1836 250.227 56.9688 250.031 57.6953C249.836 58.4141 249.543 59.0391 249.152 59.5703C248.762 60.0938 248.27 60.5039 247.676 60.8008C247.082 61.0898 246.383 61.2344 245.578 61.2344C244.961 61.2344 244.391 61.1484 243.867 60.9766C243.352 60.7969 242.906 60.5195 242.531 60.1445C242.164 59.7617 241.875 59.2734 241.664 58.6797C241.461 58.0781 241.359 57.3555 241.359 56.5117V48.3203H244.734V56.5352C244.734 56.9102 244.777 57.2266 244.863 57.4844C244.957 57.7422 245.086 57.9531 245.25 58.1172C245.414 58.2812 245.605 58.3984 245.824 58.4688C246.051 58.5391 246.301 58.5742 246.574 58.5742C247.27 58.5742 247.816 58.4336 248.215 58.1523C248.621 57.8711 248.906 57.4883 249.07 57.0039C249.242 56.5117 249.328 55.9648 249.328 55.3633ZM261.762 57.4961C261.762 57.2539 261.691 57.0352 261.551 56.8398C261.41 56.6445 261.148 56.4648 260.766 56.3008C260.391 56.1289 259.848 55.9727 259.137 55.832C258.496 55.6914 257.898 55.5156 257.344 55.3047C256.797 55.0859 256.32 54.8242 255.914 54.5195C255.516 54.2148 255.203 53.8555 254.977 53.4414C254.75 53.0195 254.637 52.5391 254.637 52C254.637 51.4688 254.75 50.9688 254.977 50.5C255.211 50.0312 255.543 49.6172 255.973 49.2578C256.41 48.8906 256.941 48.6055 257.566 48.4023C258.199 48.1914 258.91 48.0859 259.699 48.0859C260.801 48.0859 261.746 48.2617 262.535 48.6133C263.332 48.9648 263.941 49.4492 264.363 50.0664C264.793 50.6758 265.008 51.3711 265.008 52.1523H261.633C261.633 51.8242 261.562 51.5312 261.422 51.2734C261.289 51.0078 261.078 50.8008 260.789 50.6523C260.508 50.4961 260.141 50.418 259.688 50.418C259.312 50.418 258.988 50.4844 258.715 50.6172C258.441 50.7422 258.23 50.9141 258.082 51.1328C257.941 51.3438 257.871 51.5781 257.871 51.8359C257.871 52.0312 257.91 52.207 257.988 52.3633C258.074 52.5117 258.211 52.6484 258.398 52.7734C258.586 52.8984 258.828 53.0156 259.125 53.125C259.43 53.2266 259.805 53.3203 260.25 53.4062C261.164 53.5938 261.98 53.8398 262.699 54.1445C263.418 54.4414 263.988 54.8477 264.41 55.3633C264.832 55.8711 265.043 56.5391 265.043 57.3672C265.043 57.9297 264.918 58.4453 264.668 58.9141C264.418 59.3828 264.059 59.793 263.59 60.1445C263.121 60.4883 262.559 60.7578 261.902 60.9531C261.254 61.1406 260.523 61.2344 259.711 61.2344C258.531 61.2344 257.531 61.0234 256.711 60.6016C255.898 60.1797 255.281 59.6445 254.859 58.9961C254.445 58.3398 254.238 57.668 254.238 56.9805H257.438C257.453 57.4414 257.57 57.8125 257.789 58.0938C258.016 58.375 258.301 58.5781 258.645 58.7031C258.996 58.8281 259.375 58.8906 259.781 58.8906C260.219 58.8906 260.582 58.832 260.871 58.7148C261.16 58.5898 261.379 58.4258 261.527 58.2227C261.684 58.0117 261.762 57.7695 261.762 57.4961Z" fill="#888888"/>
<path d="M118.594 98.4219V104.75H101.086V98.4219H118.594ZM103.828 84.875V119H95.6016V84.875H103.828ZM124.125 84.875V119H115.922V84.875H124.125ZM127.992 106.578V106.086C127.992 104.227 128.258 102.516 128.789 100.953C129.32 99.375 130.102 98.0078 131.133 96.8516C132.164 95.6953 133.438 94.7969 134.953 94.1562C136.469 93.5 138.219 93.1719 140.203 93.1719C142.203 93.1719 143.961 93.5 145.477 94.1562C147.008 94.7969 148.289 95.6953 149.32 96.8516C150.352 98.0078 151.133 99.375 151.664 100.953C152.195 102.516 152.461 104.227 152.461 106.086V106.578C152.461 108.422 152.195 110.133 151.664 111.711C151.133 113.273 150.352 114.641 149.32 115.812C148.289 116.969 147.016 117.867 145.5 118.508C143.984 119.148 142.234 119.469 140.25 119.469C138.266 119.469 136.508 119.148 134.977 118.508C133.445 117.867 132.164 116.969 131.133 115.812C130.102 114.641 129.32 113.273 128.789 111.711C128.258 110.133 127.992 108.422 127.992 106.578ZM135.891 106.086V106.578C135.891 107.531 135.961 108.422 136.102 109.25C136.242 110.078 136.477 110.805 136.805 111.43C137.133 112.039 137.578 112.516 138.141 112.859C138.703 113.203 139.406 113.375 140.25 113.375C141.078 113.375 141.766 113.203 142.312 112.859C142.875 112.516 143.32 112.039 143.648 111.43C143.977 110.805 144.211 110.078 144.352 109.25C144.492 108.422 144.562 107.531 144.562 106.578V106.086C144.562 105.164 144.492 104.297 144.352 103.484C144.211 102.656 143.977 101.93 143.648 101.305C143.32 100.664 142.875 100.164 142.312 99.8047C141.75 99.4453 141.047 99.2656 140.203 99.2656C139.375 99.2656 138.68 99.4453 138.117 99.8047C137.57 100.164 137.133 100.664 136.805 101.305C136.477 101.93 136.242 102.656 136.102 103.484C135.961 104.297 135.891 105.164 135.891 106.086ZM163.688 111.453L168.375 93.6406H173.32L171.562 102.57L166.922 119H162.961L163.688 111.453ZM161.836 93.6406L164.742 111.312L165.07 119H160.266L154.266 93.6406H161.836ZM177.492 110.938L180.422 93.6406H187.992L182.039 119H177.234L177.492 110.938ZM173.883 93.6406L178.617 111.406L179.344 119H175.336L170.789 102.617L169.102 93.6406H173.883ZM218.297 84.875V119H210.07V84.875H218.297ZM228.562 84.875V91.2266H200.039V84.875H228.562ZM225.773 106.578V106.086C225.773 104.227 226.039 102.516 226.57 100.953C227.102 99.375 227.883 98.0078 228.914 96.8516C229.945 95.6953 231.219 94.7969 232.734 94.1562C234.25 93.5 236 93.1719 237.984 93.1719C239.984 93.1719 241.742 93.5 243.258 94.1562C244.789 94.7969 246.07 95.6953 247.102 96.8516C248.133 98.0078 248.914 99.375 249.445 100.953C249.977 102.516 250.242 104.227 250.242 106.086V106.578C250.242 108.422 249.977 110.133 249.445 111.711C248.914 113.273 248.133 114.641 247.102 115.812C246.07 116.969 244.797 117.867 243.281 118.508C241.766 119.148 240.016 119.469 238.031 119.469C236.047 119.469 234.289 119.148 232.758 118.508C231.227 117.867 229.945 116.969 228.914 115.812C227.883 114.641 227.102 113.273 226.57 111.711C226.039 110.133 225.773 108.422 225.773 106.578ZM233.672 106.086V106.578C233.672 107.531 233.742 108.422 233.883 109.25C234.023 110.078 234.258 110.805 234.586 111.43C234.914 112.039 235.359 112.516 235.922 112.859C236.484 113.203 237.188 113.375 238.031 113.375C238.859 113.375 239.547 113.203 240.094 112.859C240.656 112.516 241.102 112.039 241.43 111.43C241.758 110.805 241.992 110.078 242.133 109.25C242.273 108.422 242.344 107.531 242.344 106.578V106.086C242.344 105.164 242.273 104.297 242.133 103.484C241.992 102.656 241.758 101.93 241.43 101.305C241.102 100.664 240.656 100.164 240.094 99.8047C239.531 99.4453 238.828 99.2656 237.984 99.2656C237.156 99.2656 236.461 99.4453 235.898 99.8047C235.352 100.164 234.914 100.664 234.586 101.305C234.258 101.93 234.023 102.656 233.883 103.484C233.742 104.297 233.672 105.164 233.672 106.086ZM266.086 84.875H279.516C282.141 84.875 284.422 85.2656 286.359 86.0469C288.297 86.8281 289.789 87.9844 290.836 89.5156C291.898 91.0469 292.43 92.9375 292.43 95.1875C292.43 97.1406 292.125 98.7734 291.516 100.086C290.906 101.398 290.055 102.484 288.961 103.344C287.883 104.188 286.625 104.883 285.188 105.43L282.492 106.953H271.219L271.172 100.602H279.516C280.562 100.602 281.43 100.414 282.117 100.039C282.805 99.6641 283.32 99.1328 283.664 98.4453C284.023 97.7422 284.203 96.9062 284.203 95.9375C284.203 94.9531 284.023 94.1094 283.664 93.4062C283.305 92.7031 282.773 92.1641 282.07 91.7891C281.383 91.4141 280.531 91.2266 279.516 91.2266H274.312V119H266.086V84.875ZM284.766 119L277.219 103.906L285.938 103.859L293.578 118.648V119H284.766ZM311.836 112.836V93.6406H319.758V119H312.352L311.836 112.836ZM312.586 107.68L314.648 107.633C314.648 109.336 314.445 110.914 314.039 112.367C313.633 113.805 313.031 115.055 312.234 116.117C311.453 117.18 310.484 118.008 309.328 118.602C308.188 119.18 306.867 119.469 305.367 119.469C304.117 119.469 302.969 119.297 301.922 118.953C300.891 118.594 300 118.039 299.25 117.289C298.5 116.523 297.914 115.547 297.492 114.359C297.086 113.156 296.883 111.719 296.883 110.047V93.6406H304.781V110.094C304.781 110.656 304.852 111.141 304.992 111.547C305.133 111.953 305.336 112.297 305.602 112.578C305.867 112.844 306.195 113.047 306.586 113.188C306.992 113.312 307.453 113.375 307.969 113.375C309.156 113.375 310.086 113.125 310.758 112.625C311.43 112.125 311.898 111.445 312.164 110.586C312.445 109.727 312.586 108.758 312.586 107.68ZM331.875 99.0547V119H323.977V93.6406H331.383L331.875 99.0547ZM330.938 105.453L329.086 105.5C329.086 103.562 329.32 101.836 329.789 100.32C330.258 98.7891 330.922 97.4922 331.781 96.4297C332.641 95.3672 333.664 94.5625 334.852 94.0156C336.055 93.4531 337.391 93.1719 338.859 93.1719C340.031 93.1719 341.102 93.3438 342.07 93.6875C343.055 94.0312 343.898 94.5859 344.602 95.3516C345.32 96.1172 345.867 97.1328 346.242 98.3984C346.633 99.6484 346.828 101.195 346.828 103.039V119H338.883V103.016C338.883 102 338.742 101.227 338.461 100.695C338.18 100.148 337.773 99.7734 337.242 99.5703C336.711 99.3672 336.062 99.2656 335.297 99.2656C334.484 99.2656 333.797 99.4219 333.234 99.7344C332.672 100.047 332.219 100.484 331.875 101.047C331.547 101.594 331.305 102.242 331.148 102.992C331.008 103.742 330.938 104.562 330.938 105.453ZM363.773 108.195H357.047C357.047 106.82 357.141 105.609 357.328 104.562C357.531 103.5 357.875 102.547 358.359 101.703C358.844 100.859 359.5 100.078 360.328 99.3594C361.062 98.75 361.695 98.1641 362.227 97.6016C362.758 97.0391 363.164 96.4688 363.445 95.8906C363.727 95.3125 363.867 94.6953 363.867 94.0391C363.867 93.2266 363.75 92.5625 363.516 92.0469C363.297 91.5312 362.961 91.1484 362.508 90.8984C362.07 90.6328 361.516 90.5 360.844 90.5C360.297 90.5 359.781 90.6328 359.297 90.8984C358.828 91.1641 358.445 91.5781 358.148 92.1406C357.852 92.6875 357.688 93.4141 357.656 94.3203H349.711C349.758 91.9922 350.273 90.1016 351.258 88.6484C352.258 87.1797 353.586 86.1094 355.242 85.4375C356.914 84.75 358.781 84.4062 360.844 84.4062C363.125 84.4062 365.086 84.7578 366.727 85.4609C368.367 86.1641 369.625 87.2109 370.5 88.6016C371.375 89.9766 371.812 91.6719 371.812 93.6875C371.812 95.0312 371.555 96.2031 371.039 97.2031C370.539 98.1875 369.859 99.1094 369 99.9688C368.156 100.812 367.211 101.719 366.164 102.688C365.258 103.484 364.641 104.297 364.312 105.125C363.984 105.938 363.805 106.961 363.773 108.195ZM356.086 115.32C356.086 114.195 356.492 113.258 357.305 112.508C358.117 111.742 359.172 111.359 360.469 111.359C361.766 111.359 362.82 111.742 363.633 112.508C364.445 113.258 364.852 114.195 364.852 115.32C364.852 116.445 364.445 117.391 363.633 118.156C362.82 118.906 361.766 119.281 360.469 119.281C359.172 119.281 358.117 118.906 357.305 118.156C356.492 117.391 356.086 116.445 356.086 115.32Z" fill="black"/>
<path d="M1134 0H1348C1356.28 0 1363 6.71573 1363 15V148C1363 156.284 1356.28 163 1348 163H1134V0Z" fill="#123962"/>
<path d="M1260.62 78.8847C1263.81 78.8847 1266.93 79.805 1269.59 81.5293C1272.25 83.2536 1274.32 85.7044 1275.54 88.5718C1276.76 91.4391 1277.08 94.5943 1276.46 97.6383C1275.84 100.682 1274.3 103.478 1272.04 105.673C1269.78 107.868 1266.9 109.362 1263.77 109.968C1260.63 110.573 1257.39 110.262 1254.43 109.075C1251.48 107.887 1248.96 105.876 1247.18 103.295C1245.41 100.714 1244.46 97.6806 1244.46 94.5769C1244.46 90.4151 1246.16 86.4237 1249.19 83.4808C1252.22 80.538 1256.33 78.8847 1260.62 78.8847ZM1260.62 73.6539C1256.36 73.6539 1252.19 74.881 1248.65 77.1801C1245.11 79.4791 1242.35 82.7469 1240.72 86.57C1239.09 90.3932 1238.66 94.6001 1239.49 98.6588C1240.32 102.717 1242.37 106.446 1245.39 109.372C1248.4 112.298 1252.24 114.291 1256.41 115.098C1260.59 115.905 1264.92 115.491 1268.86 113.907C1272.79 112.324 1276.16 109.642 1278.52 106.201C1280.89 102.76 1282.15 98.7151 1282.15 94.5769C1282.15 89.0278 1279.88 83.706 1275.85 79.7821C1271.81 75.8583 1266.33 73.6539 1260.62 73.6539Z" fill="white"/>
<path d="M1274.08 47.5H1220.23C1218.8 47.5 1217.43 48.0511 1216.42 49.0321C1215.41 50.013 1214.85 51.3435 1214.85 52.7307V105.038C1214.85 106.426 1215.41 107.756 1216.42 108.737C1217.43 109.718 1218.8 110.269 1220.23 110.269H1231V105.038H1220.23V68.423H1279.46V52.7307C1279.46 51.3435 1278.89 50.013 1277.88 49.0321C1276.87 48.0511 1275.5 47.5 1274.08 47.5ZM1220.23 63.1922V52.7307H1274.08V63.1922H1220.23Z" fill="white"/>
<path d="M1255.23 86.731V102.423L1268.69 94.5771L1255.23 86.731Z" fill="white"/>
</svg>
