<svg width="1363" height="297" viewBox="0 0 1363 297" fill="none" xmlns="http://www.w3.org/2000/svg">
<path d="M0 15C0 6.71573 6.71573 0 15 0H37V297H15C6.71573 297 0 290.284 0 282V15Z" fill="#391847"/>
<path d="M37 0H1066V297H37V0Z" fill="#F0F0F0"/>
<path d="M112.354 59.8301V63.9434H98.9941V59.8301H112.354ZM100.559 49.4062V75H95.2852V49.4062H100.559ZM116.115 49.4062V75H110.859V49.4062H116.115ZM130.652 70.7109V62.2383C130.652 61.6289 130.553 61.1074 130.354 60.6738C130.154 60.2285 129.844 59.8828 129.422 59.6367C129.012 59.3906 128.479 59.2676 127.822 59.2676C127.26 59.2676 126.773 59.3672 126.363 59.5664C125.953 59.7539 125.637 60.0293 125.414 60.3926C125.191 60.7441 125.08 61.1602 125.08 61.6406H120.018C120.018 60.832 120.205 60.0645 120.58 59.3379C120.955 58.6113 121.5 57.9727 122.215 57.4219C122.93 56.8594 123.779 56.4199 124.764 56.1035C125.76 55.7871 126.873 55.6289 128.104 55.6289C129.58 55.6289 130.893 55.875 132.041 56.3672C133.189 56.8594 134.092 57.5977 134.748 58.582C135.416 59.5664 135.75 60.7969 135.75 62.2734V70.4121C135.75 71.4551 135.814 72.3105 135.943 72.9785C136.072 73.6348 136.26 74.209 136.506 74.7012V75H131.391C131.145 74.4844 130.957 73.8398 130.828 73.0664C130.711 72.2812 130.652 71.4961 130.652 70.7109ZM131.32 63.416L131.355 66.2812H128.525C127.857 66.2812 127.277 66.3574 126.785 66.5098C126.293 66.6621 125.889 66.8789 125.572 67.1602C125.256 67.4297 125.021 67.7461 124.869 68.1094C124.729 68.4727 124.658 68.8711 124.658 69.3047C124.658 69.7383 124.758 70.1309 124.957 70.4824C125.156 70.8223 125.443 71.0918 125.818 71.291C126.193 71.4785 126.633 71.5723 127.137 71.5723C127.898 71.5723 128.561 71.4199 129.123 71.1152C129.686 70.8105 130.119 70.4355 130.424 69.9902C130.74 69.5449 130.904 69.123 130.916 68.7246L132.252 70.8691C132.064 71.3496 131.807 71.8477 131.479 72.3633C131.162 72.8789 130.758 73.3652 130.266 73.8223C129.773 74.2676 129.182 74.6367 128.49 74.9297C127.799 75.2109 126.979 75.3516 126.029 75.3516C124.822 75.3516 123.727 75.1113 122.742 74.6309C121.77 74.1387 120.996 73.4648 120.422 72.6094C119.859 71.7422 119.578 70.7578 119.578 69.6562C119.578 68.6602 119.766 67.7754 120.141 67.002C120.516 66.2285 121.066 65.5781 121.793 65.0508C122.531 64.5117 123.451 64.1074 124.553 63.8379C125.654 63.5566 126.932 63.416 128.385 63.416H131.32ZM150.885 70.8516V48H155.982V75H151.395L150.885 70.8516ZM138.861 65.7188V65.3496C138.861 63.8965 139.025 62.5781 139.354 61.3945C139.682 60.1992 140.162 59.1738 140.795 58.3184C141.428 57.4629 142.207 56.8008 143.133 56.332C144.059 55.8633 145.113 55.6289 146.297 55.6289C147.41 55.6289 148.383 55.8633 149.215 56.332C150.059 56.8008 150.773 57.4688 151.359 58.3359C151.957 59.1914 152.438 60.2051 152.801 61.377C153.164 62.5371 153.428 63.8086 153.592 65.1914V66C153.428 67.3242 153.164 68.5547 152.801 69.6914C152.438 70.8281 151.957 71.8242 151.359 72.6797C150.773 73.5234 150.059 74.1797 149.215 74.6484C148.371 75.1172 147.387 75.3516 146.262 75.3516C145.078 75.3516 144.023 75.1113 143.098 74.6309C142.184 74.1504 141.41 73.4766 140.777 72.6094C140.156 71.7422 139.682 70.7227 139.354 69.5508C139.025 68.3789 138.861 67.1016 138.861 65.7188ZM143.924 65.3496V65.7188C143.924 66.5039 143.982 67.2363 144.1 67.916C144.229 68.5957 144.434 69.1992 144.715 69.7266C145.008 70.2422 145.383 70.6465 145.84 70.9395C146.309 71.2207 146.877 71.3613 147.545 71.3613C148.412 71.3613 149.127 71.168 149.689 70.7812C150.252 70.3828 150.68 69.8379 150.973 69.1465C151.277 68.4551 151.453 67.6582 151.5 66.7559V64.4531C151.465 63.7148 151.359 63.0527 151.184 62.4668C151.02 61.8691 150.773 61.3594 150.445 60.9375C150.129 60.5156 149.73 60.1875 149.25 59.9531C148.781 59.7188 148.225 59.6016 147.58 59.6016C146.924 59.6016 146.361 59.7539 145.893 60.0586C145.424 60.3516 145.043 60.7559 144.75 61.2715C144.469 61.7871 144.258 62.3965 144.117 63.0996C143.988 63.791 143.924 64.541 143.924 65.3496ZM165.281 55.9805V75H160.201V55.9805H165.281ZM159.885 51.0234C159.885 50.2852 160.143 49.6758 160.658 49.1953C161.174 48.7148 161.865 48.4746 162.732 48.4746C163.588 48.4746 164.273 48.7148 164.789 49.1953C165.316 49.6758 165.58 50.2852 165.58 51.0234C165.58 51.7617 165.316 52.3711 164.789 52.8516C164.273 53.332 163.588 53.5723 162.732 53.5723C161.865 53.5723 161.174 53.332 160.658 52.8516C160.143 52.3711 159.885 51.7617 159.885 51.0234ZM199.031 61.623V71.7656C198.633 72.2461 198.018 72.7676 197.186 73.3301C196.354 73.8809 195.281 74.3555 193.969 74.7539C192.656 75.1523 191.068 75.3516 189.205 75.3516C187.553 75.3516 186.047 75.082 184.688 74.543C183.328 73.9922 182.156 73.1895 181.172 72.1348C180.199 71.0801 179.449 69.791 178.922 68.2676C178.395 66.7324 178.131 64.9805 178.131 63.0117V61.4121C178.131 59.4434 178.383 57.6914 178.887 56.1562C179.402 54.6211 180.135 53.3262 181.084 52.2715C182.033 51.2168 183.164 50.4141 184.477 49.8633C185.789 49.3125 187.248 49.0371 188.854 49.0371C191.08 49.0371 192.908 49.4004 194.338 50.127C195.768 50.8418 196.857 51.8379 197.607 53.1152C198.369 54.3809 198.838 55.834 199.014 57.4746H193.898C193.77 56.6074 193.523 55.8516 193.16 55.207C192.797 54.5625 192.275 54.0586 191.596 53.6953C190.928 53.332 190.061 53.1504 188.994 53.1504C188.115 53.1504 187.33 53.332 186.639 53.6953C185.959 54.0469 185.385 54.5684 184.916 55.2598C184.447 55.9512 184.09 56.8066 183.844 57.8262C183.598 58.8457 183.475 60.0293 183.475 61.377V63.0117C183.475 64.3477 183.604 65.5312 183.861 66.5625C184.119 67.582 184.5 68.4434 185.004 69.1465C185.52 69.8379 186.152 70.3594 186.902 70.7109C187.652 71.0625 188.525 71.2383 189.521 71.2383C190.354 71.2383 191.045 71.168 191.596 71.0273C192.158 70.8867 192.609 70.7168 192.949 70.5176C193.301 70.3066 193.57 70.1074 193.758 69.9199V65.3848H188.941V61.623H199.031ZM207.908 48V75H202.846V48H207.908ZM207.188 64.8223H205.799C205.811 63.498 205.986 62.2793 206.326 61.166C206.666 60.041 207.152 59.0684 207.785 58.248C208.418 57.416 209.174 56.7715 210.053 56.3145C210.943 55.8574 211.928 55.6289 213.006 55.6289C213.943 55.6289 214.793 55.7637 215.555 56.0332C216.328 56.291 216.99 56.7129 217.541 57.2988C218.104 57.873 218.537 58.6289 218.842 59.5664C219.146 60.5039 219.299 61.6406 219.299 62.9766V75H214.201V62.9414C214.201 62.0977 214.078 61.4355 213.832 60.9551C213.598 60.4629 213.252 60.1172 212.795 59.918C212.35 59.707 211.799 59.6016 211.143 59.6016C210.416 59.6016 209.795 59.7363 209.279 60.0059C208.775 60.2754 208.371 60.6504 208.066 61.1309C207.762 61.5996 207.539 62.1504 207.398 62.7832C207.258 63.416 207.188 64.0957 207.188 64.8223ZM233.414 70.7109V62.2383C233.414 61.6289 233.314 61.1074 233.115 60.6738C232.916 60.2285 232.605 59.8828 232.184 59.6367C231.773 59.3906 231.24 59.2676 230.584 59.2676C230.021 59.2676 229.535 59.3672 229.125 59.5664C228.715 59.7539 228.398 60.0293 228.176 60.3926C227.953 60.7441 227.842 61.1602 227.842 61.6406H222.779C222.779 60.832 222.967 60.0645 223.342 59.3379C223.717 58.6113 224.262 57.9727 224.977 57.4219C225.691 56.8594 226.541 56.4199 227.525 56.1035C228.521 55.7871 229.635 55.6289 230.865 55.6289C232.342 55.6289 233.654 55.875 234.803 56.3672C235.951 56.8594 236.854 57.5977 237.51 58.582C238.178 59.5664 238.512 60.7969 238.512 62.2734V70.4121C238.512 71.4551 238.576 72.3105 238.705 72.9785C238.834 73.6348 239.021 74.209 239.268 74.7012V75H234.152C233.906 74.4844 233.719 73.8398 233.59 73.0664C233.473 72.2812 233.414 71.4961 233.414 70.7109ZM234.082 63.416L234.117 66.2812H231.287C230.619 66.2812 230.039 66.3574 229.547 66.5098C229.055 66.6621 228.65 66.8789 228.334 67.1602C228.018 67.4297 227.783 67.7461 227.631 68.1094C227.49 68.4727 227.42 68.8711 227.42 69.3047C227.42 69.7383 227.52 70.1309 227.719 70.4824C227.918 70.8223 228.205 71.0918 228.58 71.291C228.955 71.4785 229.395 71.5723 229.898 71.5723C230.66 71.5723 231.322 71.4199 231.885 71.1152C232.447 70.8105 232.881 70.4355 233.186 69.9902C233.502 69.5449 233.666 69.123 233.678 68.7246L235.014 70.8691C234.826 71.3496 234.568 71.8477 234.24 72.3633C233.924 72.8789 233.52 73.3652 233.027 73.8223C232.535 74.2676 231.943 74.6367 231.252 74.9297C230.561 75.2109 229.74 75.3516 228.791 75.3516C227.584 75.3516 226.488 75.1113 225.504 74.6309C224.531 74.1387 223.758 73.4648 223.184 72.6094C222.621 71.7422 222.34 70.7578 222.34 69.6562C222.34 68.6602 222.527 67.7754 222.902 67.002C223.277 66.2285 223.828 65.5781 224.555 65.0508C225.293 64.5117 226.213 64.1074 227.314 63.8379C228.416 63.5566 229.693 63.416 231.146 63.416H234.082ZM257.549 71.0449V75H243.1V71.0449H257.549ZM257.268 58.8984L245.139 75H241.746V71.9941L253.822 55.9805H257.268V58.8984ZM255.475 55.9805V59.9531H242.027V55.9805H255.475ZM266.074 55.9805V75H260.994V55.9805H266.074ZM260.678 51.0234C260.678 50.2852 260.936 49.6758 261.451 49.1953C261.967 48.7148 262.658 48.4746 263.525 48.4746C264.381 48.4746 265.066 48.7148 265.582 49.1953C266.109 49.6758 266.373 50.2852 266.373 51.0234C266.373 51.7617 266.109 52.3711 265.582 52.8516C265.066 53.332 264.381 53.5723 263.525 53.5723C262.658 53.5723 261.967 53.332 261.451 52.8516C260.936 52.3711 260.678 51.7617 260.678 51.0234Z" fill="#888888"/>
<path d="M116.543 129.418C116.543 128.798 116.452 128.242 116.27 127.75C116.087 127.24 115.75 126.766 115.258 126.328C114.766 125.891 114.055 125.453 113.125 125.016C112.214 124.56 111.01 124.086 109.516 123.594C107.766 123.01 106.079 122.354 104.457 121.625C102.835 120.878 101.385 120.012 100.109 119.027C98.8333 118.025 97.8216 116.858 97.0742 115.527C96.3268 114.178 95.9531 112.611 95.9531 110.824C95.9531 109.111 96.3359 107.57 97.1016 106.203C97.8672 104.818 98.9336 103.642 100.301 102.676C101.686 101.691 103.309 100.944 105.168 100.434C107.027 99.9049 109.06 99.6406 111.266 99.6406C114.182 99.6406 116.753 100.151 118.977 101.172C121.219 102.174 122.969 103.605 124.227 105.465C125.503 107.306 126.141 109.484 126.141 112H116.598C116.598 110.997 116.388 110.113 115.969 109.348C115.568 108.582 114.957 107.98 114.137 107.543C113.316 107.105 112.286 106.887 111.047 106.887C109.844 106.887 108.832 107.069 108.012 107.434C107.191 107.798 106.572 108.29 106.152 108.91C105.733 109.512 105.523 110.177 105.523 110.906C105.523 111.508 105.688 112.055 106.016 112.547C106.362 113.021 106.845 113.467 107.465 113.887C108.103 114.306 108.868 114.707 109.762 115.09C110.673 115.473 111.694 115.846 112.824 116.211C114.939 116.885 116.816 117.642 118.457 118.48C120.116 119.301 121.51 120.24 122.641 121.297C123.789 122.336 124.655 123.521 125.238 124.852C125.84 126.182 126.141 127.686 126.141 129.363C126.141 131.15 125.794 132.736 125.102 134.121C124.409 135.507 123.415 136.682 122.121 137.648C120.827 138.596 119.277 139.316 117.473 139.809C115.668 140.301 113.654 140.547 111.43 140.547C109.388 140.547 107.374 140.292 105.387 139.781C103.418 139.253 101.632 138.451 100.027 137.375C98.4232 136.281 97.138 134.887 96.1719 133.191C95.224 131.478 94.75 129.445 94.75 127.094H104.375C104.375 128.26 104.53 129.245 104.84 130.047C105.15 130.849 105.605 131.496 106.207 131.988C106.809 132.462 107.547 132.809 108.422 133.027C109.297 133.228 110.299 133.328 111.43 133.328C112.651 133.328 113.635 133.155 114.383 132.809C115.13 132.444 115.677 131.97 116.023 131.387C116.37 130.785 116.543 130.129 116.543 129.418ZM139.949 116.676V140H130.734V110.414H139.375L139.949 116.676ZM138.828 124.195L136.723 124.25C136.723 122.172 136.969 120.258 137.461 118.508C137.953 116.758 138.682 115.236 139.648 113.941C140.615 112.647 141.799 111.645 143.203 110.934C144.625 110.223 146.266 109.867 148.125 109.867C149.419 109.867 150.595 110.068 151.652 110.469C152.71 110.852 153.621 111.462 154.387 112.301C155.152 113.121 155.736 114.197 156.137 115.527C156.556 116.84 156.766 118.417 156.766 120.258V140H147.551V121.434C147.551 120.176 147.405 119.228 147.113 118.59C146.84 117.952 146.439 117.523 145.91 117.305C145.382 117.086 144.734 116.977 143.969 116.977C143.167 116.977 142.447 117.159 141.809 117.523C141.171 117.888 140.624 118.398 140.168 119.055C139.73 119.693 139.393 120.449 139.156 121.324C138.938 122.199 138.828 123.156 138.828 124.195ZM155.727 124.195L153.156 124.25C153.156 122.172 153.384 120.258 153.84 118.508C154.314 116.758 155.016 115.236 155.945 113.941C156.893 112.647 158.069 111.645 159.473 110.934C160.876 110.223 162.508 109.867 164.367 109.867C165.716 109.867 166.956 110.068 168.086 110.469C169.216 110.87 170.191 111.517 171.012 112.41C171.832 113.303 172.47 114.488 172.926 115.965C173.382 117.423 173.609 119.228 173.609 121.379V140H164.367V121.379C164.367 120.158 164.221 119.237 163.93 118.617C163.656 117.979 163.255 117.551 162.727 117.332C162.198 117.095 161.569 116.977 160.84 116.977C159.965 116.977 159.208 117.159 158.57 117.523C157.932 117.888 157.395 118.398 156.957 119.055C156.538 119.693 156.228 120.449 156.027 121.324C155.827 122.199 155.727 123.156 155.727 124.195ZM194.254 132.562V120.367C194.254 119.529 194.135 118.809 193.898 118.207C193.661 117.605 193.288 117.141 192.777 116.812C192.267 116.466 191.583 116.293 190.727 116.293C190.034 116.293 189.441 116.411 188.949 116.648C188.457 116.885 188.083 117.241 187.828 117.715C187.573 118.189 187.445 118.79 187.445 119.52H178.23C178.23 118.152 178.531 116.885 179.133 115.719C179.753 114.534 180.628 113.504 181.758 112.629C182.906 111.754 184.273 111.079 185.859 110.605C187.464 110.113 189.25 109.867 191.219 109.867C193.57 109.867 195.667 110.259 197.508 111.043C199.367 111.827 200.835 113.003 201.91 114.57C202.986 116.12 203.523 118.07 203.523 120.422V132.535C203.523 134.467 203.633 135.935 203.852 136.938C204.07 137.922 204.38 138.788 204.781 139.535V140H195.539C195.102 139.089 194.773 137.977 194.555 136.664C194.354 135.333 194.254 133.966 194.254 132.562ZM195.375 121.926L195.43 126.848H191.355C190.499 126.848 189.77 126.966 189.168 127.203C188.585 127.44 188.111 127.768 187.746 128.188C187.4 128.589 187.145 129.044 186.98 129.555C186.835 130.065 186.762 130.603 186.762 131.168C186.762 131.715 186.889 132.207 187.145 132.645C187.418 133.064 187.783 133.392 188.238 133.629C188.694 133.866 189.204 133.984 189.77 133.984C190.79 133.984 191.656 133.793 192.367 133.41C193.096 133.009 193.652 132.526 194.035 131.961C194.418 131.396 194.609 130.867 194.609 130.375L196.633 134.148C196.268 134.878 195.849 135.616 195.375 136.363C194.919 137.111 194.345 137.803 193.652 138.441C192.978 139.061 192.148 139.572 191.164 139.973C190.18 140.355 188.986 140.547 187.582 140.547C185.759 140.547 184.082 140.173 182.551 139.426C181.038 138.678 179.826 137.639 178.914 136.309C178.003 134.96 177.547 133.41 177.547 131.66C177.547 130.129 177.82 128.762 178.367 127.559C178.932 126.355 179.78 125.335 180.91 124.496C182.04 123.658 183.48 123.02 185.23 122.582C186.98 122.145 189.04 121.926 191.41 121.926H195.375ZM217.934 117.742V140H208.719V110.414H217.332L217.934 117.742ZM226.684 110.195L226.52 118.754C226.155 118.717 225.663 118.672 225.043 118.617C224.423 118.562 223.904 118.535 223.484 118.535C222.409 118.535 221.479 118.663 220.695 118.918C219.93 119.155 219.292 119.52 218.781 120.012C218.289 120.486 217.924 121.087 217.688 121.816C217.469 122.546 217.368 123.393 217.387 124.359L215.719 123.266C215.719 121.279 215.91 119.474 216.293 117.852C216.694 116.211 217.259 114.798 217.988 113.613C218.717 112.41 219.602 111.49 220.641 110.852C221.68 110.195 222.846 109.867 224.141 109.867C224.596 109.867 225.043 109.895 225.48 109.949C225.936 110.004 226.337 110.086 226.684 110.195ZM246.809 110.414V116.812H228.98V110.414H246.809ZM232.727 103.059H241.941V130.348C241.941 131.132 242.033 131.742 242.215 132.18C242.397 132.599 242.707 132.9 243.145 133.082C243.6 133.246 244.202 133.328 244.949 133.328C245.478 133.328 245.915 133.319 246.262 133.301C246.608 133.264 246.936 133.219 247.246 133.164V139.754C246.462 140.009 245.642 140.201 244.785 140.328C243.928 140.474 243.017 140.547 242.051 140.547C240.082 140.547 238.396 140.237 236.992 139.617C235.607 138.997 234.549 138.022 233.82 136.691C233.091 135.361 232.727 133.629 232.727 131.496V103.059ZM287.496 126.52H297.066C296.939 129.29 296.191 131.733 294.824 133.848C293.457 135.962 291.561 137.612 289.137 138.797C286.73 139.964 283.887 140.547 280.605 140.547C277.944 140.547 275.565 140.1 273.469 139.207C271.391 138.314 269.622 137.029 268.164 135.352C266.724 133.674 265.621 131.642 264.855 129.254C264.108 126.866 263.734 124.177 263.734 121.188V119.027C263.734 116.038 264.126 113.349 264.91 110.961C265.712 108.555 266.842 106.513 268.301 104.836C269.777 103.141 271.546 101.846 273.605 100.953C275.665 100.06 277.953 99.6133 280.469 99.6133C283.932 99.6133 286.858 100.233 289.246 101.473C291.634 102.712 293.484 104.417 294.797 106.586C296.109 108.737 296.884 111.189 297.121 113.941H287.551C287.514 112.447 287.259 111.198 286.785 110.195C286.311 109.174 285.564 108.409 284.543 107.898C283.522 107.388 282.164 107.133 280.469 107.133C279.284 107.133 278.254 107.352 277.379 107.789C276.504 108.227 275.775 108.919 275.191 109.867C274.608 110.815 274.171 112.046 273.879 113.559C273.605 115.053 273.469 116.858 273.469 118.973V121.188C273.469 123.302 273.596 125.107 273.852 126.602C274.107 128.096 274.517 129.318 275.082 130.266C275.647 131.214 276.376 131.915 277.27 132.371C278.181 132.809 279.293 133.027 280.605 133.027C282.064 133.027 283.294 132.799 284.297 132.344C285.299 131.87 286.074 131.159 286.621 130.211C287.168 129.245 287.46 128.014 287.496 126.52ZM316.535 132.562V120.367C316.535 119.529 316.417 118.809 316.18 118.207C315.943 117.605 315.569 117.141 315.059 116.812C314.548 116.466 313.865 116.293 313.008 116.293C312.315 116.293 311.723 116.411 311.23 116.648C310.738 116.885 310.365 117.241 310.109 117.715C309.854 118.189 309.727 118.79 309.727 119.52H300.512C300.512 118.152 300.812 116.885 301.414 115.719C302.034 114.534 302.909 113.504 304.039 112.629C305.188 111.754 306.555 111.079 308.141 110.605C309.745 110.113 311.531 109.867 313.5 109.867C315.852 109.867 317.948 110.259 319.789 111.043C321.648 111.827 323.116 113.003 324.191 114.57C325.267 116.12 325.805 118.07 325.805 120.422V132.535C325.805 134.467 325.914 135.935 326.133 136.938C326.352 137.922 326.661 138.788 327.062 139.535V140H317.82C317.383 139.089 317.055 137.977 316.836 136.664C316.635 135.333 316.535 133.966 316.535 132.562ZM317.656 121.926L317.711 126.848H313.637C312.78 126.848 312.051 126.966 311.449 127.203C310.866 127.44 310.392 127.768 310.027 128.188C309.681 128.589 309.426 129.044 309.262 129.555C309.116 130.065 309.043 130.603 309.043 131.168C309.043 131.715 309.171 132.207 309.426 132.645C309.699 133.064 310.064 133.392 310.52 133.629C310.975 133.866 311.486 133.984 312.051 133.984C313.072 133.984 313.938 133.793 314.648 133.41C315.378 133.009 315.934 132.526 316.316 131.961C316.699 131.396 316.891 130.867 316.891 130.375L318.914 134.148C318.549 134.878 318.13 135.616 317.656 136.363C317.201 137.111 316.626 137.803 315.934 138.441C315.259 139.061 314.43 139.572 313.445 139.973C312.461 140.355 311.267 140.547 309.863 140.547C308.04 140.547 306.363 140.173 304.832 139.426C303.319 138.678 302.107 137.639 301.195 136.309C300.284 134.96 299.828 133.41 299.828 131.66C299.828 130.129 300.102 128.762 300.648 127.559C301.214 126.355 302.061 125.335 303.191 124.496C304.322 123.658 305.762 123.02 307.512 122.582C309.262 122.145 311.322 121.926 313.691 121.926H317.656ZM340.215 116.676V140H331V110.414H339.641L340.215 116.676ZM339.094 124.195L336.988 124.25C336.988 122.172 337.234 120.258 337.727 118.508C338.219 116.758 338.948 115.236 339.914 113.941C340.88 112.647 342.065 111.645 343.469 110.934C344.891 110.223 346.531 109.867 348.391 109.867C349.685 109.867 350.861 110.068 351.918 110.469C352.975 110.852 353.887 111.462 354.652 112.301C355.418 113.121 356.001 114.197 356.402 115.527C356.822 116.84 357.031 118.417 357.031 120.258V140H347.816V121.434C347.816 120.176 347.671 119.228 347.379 118.59C347.105 117.952 346.704 117.523 346.176 117.305C345.647 117.086 345 116.977 344.234 116.977C343.432 116.977 342.712 117.159 342.074 117.523C341.436 117.888 340.889 118.398 340.434 119.055C339.996 119.693 339.659 120.449 339.422 121.324C339.203 122.199 339.094 123.156 339.094 124.195ZM355.992 124.195L353.422 124.25C353.422 122.172 353.65 120.258 354.105 118.508C354.579 116.758 355.281 115.236 356.211 113.941C357.159 112.647 358.335 111.645 359.738 110.934C361.142 110.223 362.773 109.867 364.633 109.867C365.982 109.867 367.221 110.068 368.352 110.469C369.482 110.87 370.457 111.517 371.277 112.41C372.098 113.303 372.736 114.488 373.191 115.965C373.647 117.423 373.875 119.228 373.875 121.379V140H364.633V121.379C364.633 120.158 364.487 119.237 364.195 118.617C363.922 117.979 363.521 117.551 362.992 117.332C362.464 117.095 361.835 116.977 361.105 116.977C360.23 116.977 359.474 117.159 358.836 117.523C358.198 117.888 357.66 118.398 357.223 119.055C356.803 119.693 356.493 120.449 356.293 121.324C356.092 122.199 355.992 123.156 355.992 124.195ZM388.449 116.102V151.375H379.234V110.414H387.82L388.449 116.102ZM406.605 124.852V125.426C406.605 127.577 406.359 129.573 405.867 131.414C405.375 133.255 404.646 134.859 403.68 136.227C402.714 137.594 401.51 138.66 400.07 139.426C398.648 140.173 396.999 140.547 395.121 140.547C393.353 140.547 391.831 140.155 390.555 139.371C389.279 138.587 388.212 137.503 387.355 136.117C386.499 134.732 385.806 133.146 385.277 131.359C384.749 129.573 384.329 127.686 384.02 125.699V124.961C384.329 122.828 384.749 120.85 385.277 119.027C385.806 117.186 386.499 115.582 387.355 114.215C388.212 112.848 389.27 111.781 390.527 111.016C391.803 110.25 393.326 109.867 395.094 109.867C396.971 109.867 398.621 110.223 400.043 110.934C401.483 111.645 402.686 112.665 403.652 113.996C404.637 115.309 405.375 116.885 405.867 118.727C406.359 120.568 406.605 122.609 406.605 124.852ZM397.391 125.426V124.852C397.391 123.703 397.309 122.655 397.145 121.707C396.98 120.741 396.716 119.902 396.352 119.191C396.005 118.48 395.54 117.934 394.957 117.551C394.374 117.168 393.654 116.977 392.797 116.977C391.812 116.977 390.983 117.132 390.309 117.441C389.652 117.733 389.124 118.189 388.723 118.809C388.34 119.41 388.066 120.167 387.902 121.078C387.757 121.971 387.693 123.02 387.711 124.223V126.465C387.674 127.85 387.811 129.072 388.121 130.129C388.431 131.168 388.969 131.979 389.734 132.562C390.5 133.146 391.539 133.438 392.852 133.438C393.727 133.438 394.456 133.237 395.039 132.836C395.622 132.417 396.087 131.842 396.434 131.113C396.78 130.366 397.026 129.509 397.172 128.543C397.318 127.577 397.391 126.538 397.391 125.426ZM427.988 132.809V110.414H437.23V140H428.59L427.988 132.809ZM428.863 126.793L431.27 126.738C431.27 128.725 431.033 130.566 430.559 132.262C430.085 133.939 429.383 135.397 428.453 136.637C427.542 137.876 426.411 138.842 425.062 139.535C423.732 140.21 422.191 140.547 420.441 140.547C418.983 140.547 417.643 140.346 416.422 139.945C415.219 139.526 414.18 138.879 413.305 138.004C412.43 137.111 411.746 135.971 411.254 134.586C410.78 133.182 410.543 131.505 410.543 129.555V110.414H419.758V129.609C419.758 130.266 419.84 130.831 420.004 131.305C420.168 131.779 420.405 132.18 420.715 132.508C421.025 132.818 421.408 133.055 421.863 133.219C422.337 133.365 422.875 133.438 423.477 133.438C424.862 133.438 425.947 133.146 426.73 132.562C427.514 131.979 428.061 131.186 428.371 130.184C428.699 129.181 428.863 128.051 428.863 126.793ZM457.82 131.688C457.82 131.177 457.647 130.74 457.301 130.375C456.973 129.992 456.389 129.646 455.551 129.336C454.712 129.008 453.536 128.68 452.023 128.352C450.583 128.042 449.225 127.632 447.949 127.121C446.691 126.611 445.589 125.991 444.641 125.262C443.693 124.533 442.945 123.667 442.398 122.664C441.87 121.661 441.605 120.513 441.605 119.219C441.605 117.961 441.87 116.776 442.398 115.664C442.945 114.534 443.738 113.54 444.777 112.684C445.835 111.809 447.12 111.125 448.633 110.633C450.146 110.122 451.868 109.867 453.801 109.867C456.462 109.867 458.759 110.277 460.691 111.098C462.624 111.9 464.109 113.03 465.148 114.488C466.206 115.928 466.734 117.596 466.734 119.492H457.52C457.52 118.745 457.392 118.107 457.137 117.578C456.9 117.049 456.508 116.648 455.961 116.375C455.414 116.083 454.685 115.938 453.773 115.938C453.135 115.938 452.552 116.056 452.023 116.293C451.513 116.53 451.103 116.858 450.793 117.277C450.483 117.697 450.328 118.189 450.328 118.754C450.328 119.155 450.419 119.52 450.602 119.848C450.802 120.158 451.103 120.449 451.504 120.723C451.905 120.978 452.415 121.215 453.035 121.434C453.655 121.634 454.402 121.816 455.277 121.98C457.264 122.345 459.124 122.865 460.855 123.539C462.587 124.214 463.991 125.171 465.066 126.41C466.16 127.65 466.707 129.318 466.707 131.414C466.707 132.727 466.406 133.939 465.805 135.051C465.203 136.145 464.337 137.111 463.207 137.949C462.077 138.77 460.719 139.408 459.133 139.863C457.547 140.319 455.76 140.547 453.773 140.547C450.948 140.547 448.56 140.046 446.609 139.043C444.659 138.022 443.182 136.746 442.18 135.215C441.195 133.665 440.703 132.098 440.703 130.512H449.289C449.326 131.423 449.544 132.171 449.945 132.754C450.365 133.337 450.921 133.766 451.613 134.039C452.306 134.312 453.108 134.449 454.02 134.449C454.858 134.449 455.551 134.331 456.098 134.094C456.663 133.857 457.091 133.538 457.383 133.137C457.674 132.717 457.82 132.234 457.82 131.688Z" fill="black"/>
<rect x="93" y="178" width="917" height="77" rx="10" fill="#D3D3D3"/>
<rect x="111" y="196" width="91" height="41" rx="3" fill="#424242"/>
<rect x="111" y="196" width="91" height="41" rx="3" stroke="#424242" stroke-width="4"/>
<path d="M134.141 210.203H139.177C140.161 210.203 141.017 210.35 141.743 210.643C142.47 210.936 143.029 211.369 143.422 211.943C143.82 212.518 144.02 213.227 144.02 214.07C144.02 214.803 143.905 215.415 143.677 215.907C143.448 216.399 143.129 216.807 142.719 217.129C142.314 217.445 141.843 217.706 141.304 217.911L140.293 218.482H136.065L136.048 216.101H139.177C139.569 216.101 139.895 216.03 140.152 215.89C140.41 215.749 140.604 215.55 140.732 215.292C140.867 215.028 140.935 214.715 140.935 214.352C140.935 213.982 140.867 213.666 140.732 213.402C140.598 213.139 140.398 212.937 140.135 212.796C139.877 212.655 139.558 212.585 139.177 212.585H137.226V223H134.141V210.203ZM141.146 223L138.315 217.34L141.585 217.322L144.45 222.868V223H141.146ZM150.348 223.176C149.574 223.176 148.883 223.056 148.273 222.815C147.664 222.569 147.148 222.232 146.727 221.805C146.311 221.377 145.991 220.885 145.769 220.328C145.552 219.771 145.443 219.183 145.443 218.562V218.228C145.443 217.53 145.54 216.886 145.733 216.294C145.927 215.696 146.214 215.175 146.595 214.729C146.976 214.284 147.453 213.938 148.027 213.692C148.602 213.44 149.27 213.314 150.031 213.314C150.705 213.314 151.309 213.423 151.842 213.64C152.375 213.856 152.826 214.167 153.195 214.571C153.57 214.976 153.854 215.465 154.048 216.039C154.247 216.613 154.347 217.258 154.347 217.973V219.177H146.577V217.322H151.455V217.094C151.461 216.777 151.405 216.508 151.288 216.285C151.177 216.062 151.013 215.893 150.796 215.775C150.579 215.658 150.315 215.6 150.005 215.6C149.683 215.6 149.416 215.67 149.205 215.811C149 215.951 148.839 216.145 148.722 216.391C148.61 216.631 148.531 216.909 148.484 217.226C148.438 217.542 148.414 217.876 148.414 218.228V218.562C148.414 218.913 148.461 219.232 148.555 219.52C148.654 219.807 148.795 220.053 148.977 220.258C149.164 220.457 149.387 220.612 149.645 220.724C149.908 220.835 150.207 220.891 150.541 220.891C150.945 220.891 151.344 220.814 151.736 220.662C152.129 220.51 152.466 220.258 152.747 219.906L154.092 221.506C153.898 221.781 153.623 222.048 153.266 222.306C152.914 222.563 152.492 222.774 152 222.938C151.508 223.097 150.957 223.176 150.348 223.176ZM160.49 220.609V216.689C160.49 216.42 160.452 216.188 160.376 215.995C160.3 215.802 160.18 215.652 160.016 215.547C159.852 215.436 159.632 215.38 159.356 215.38C159.134 215.38 158.943 215.418 158.785 215.494C158.627 215.57 158.507 215.685 158.425 215.837C158.343 215.989 158.302 216.183 158.302 216.417H155.34C155.34 215.978 155.437 215.57 155.63 215.195C155.829 214.814 156.11 214.483 156.474 214.202C156.843 213.921 157.282 213.704 157.792 213.552C158.308 213.394 158.882 213.314 159.515 213.314C160.271 213.314 160.944 213.44 161.536 213.692C162.134 213.944 162.605 214.322 162.951 214.826C163.297 215.324 163.47 215.951 163.47 216.707V220.601C163.47 221.222 163.505 221.693 163.575 222.016C163.646 222.332 163.745 222.61 163.874 222.851V223H160.903C160.763 222.707 160.657 222.35 160.587 221.928C160.522 221.5 160.49 221.061 160.49 220.609ZM160.851 217.19L160.868 218.772H159.559C159.283 218.772 159.049 218.811 158.855 218.887C158.668 218.963 158.516 219.068 158.398 219.203C158.287 219.332 158.205 219.479 158.152 219.643C158.105 219.807 158.082 219.979 158.082 220.161C158.082 220.337 158.123 220.495 158.205 220.636C158.293 220.771 158.41 220.876 158.557 220.952C158.703 221.028 158.867 221.066 159.049 221.066C159.377 221.066 159.655 221.005 159.884 220.882C160.118 220.753 160.297 220.598 160.42 220.416C160.543 220.234 160.604 220.064 160.604 219.906L161.255 221.119C161.138 221.354 161.003 221.591 160.851 221.831C160.704 222.071 160.52 222.294 160.297 222.499C160.08 222.698 159.813 222.862 159.497 222.991C159.181 223.114 158.797 223.176 158.346 223.176C157.76 223.176 157.221 223.056 156.729 222.815C156.242 222.575 155.853 222.241 155.56 221.813C155.267 221.38 155.12 220.882 155.12 220.319C155.12 219.827 155.208 219.388 155.384 219.001C155.565 218.614 155.838 218.286 156.201 218.017C156.564 217.747 157.027 217.542 157.59 217.401C158.152 217.261 158.814 217.19 159.576 217.19H160.851ZM169.13 220.891C169.405 220.891 169.64 220.841 169.833 220.741C170.032 220.636 170.182 220.489 170.281 220.302C170.387 220.108 170.437 219.877 170.431 219.607H173.217C173.223 220.322 173.047 220.949 172.689 221.488C172.338 222.021 171.857 222.438 171.248 222.736C170.645 223.029 169.962 223.176 169.2 223.176C168.456 223.176 167.806 223.056 167.249 222.815C166.692 222.569 166.227 222.229 165.852 221.796C165.482 221.356 165.204 220.844 165.017 220.258C164.835 219.672 164.744 219.036 164.744 218.351V218.148C164.744 217.463 164.835 216.827 165.017 216.241C165.204 215.649 165.482 215.137 165.852 214.703C166.227 214.264 166.689 213.924 167.24 213.684C167.797 213.438 168.444 213.314 169.183 213.314C169.974 213.314 170.671 213.464 171.274 213.763C171.884 214.062 172.361 214.495 172.707 215.063C173.053 215.632 173.223 216.32 173.217 217.129H170.431C170.437 216.842 170.393 216.584 170.299 216.355C170.205 216.127 170.059 215.945 169.859 215.811C169.666 215.67 169.417 215.6 169.112 215.6C168.808 215.6 168.562 215.667 168.374 215.802C168.187 215.937 168.043 216.124 167.943 216.364C167.85 216.599 167.785 216.868 167.75 217.173C167.721 217.478 167.706 217.803 167.706 218.148V218.351C167.706 218.702 167.721 219.033 167.75 219.344C167.785 219.648 167.853 219.918 167.952 220.152C168.052 220.381 168.195 220.562 168.383 220.697C168.57 220.826 168.819 220.891 169.13 220.891ZM179.492 213.49V215.547H173.762V213.49H179.492ZM174.966 211.126H177.928V219.897C177.928 220.149 177.957 220.346 178.016 220.486C178.074 220.621 178.174 220.718 178.314 220.776C178.461 220.829 178.654 220.855 178.895 220.855C179.064 220.855 179.205 220.853 179.316 220.847C179.428 220.835 179.533 220.82 179.633 220.803V222.921C179.381 223.003 179.117 223.064 178.842 223.105C178.566 223.152 178.273 223.176 177.963 223.176C177.33 223.176 176.788 223.076 176.337 222.877C175.892 222.678 175.552 222.364 175.317 221.937C175.083 221.509 174.966 220.952 174.966 220.267V211.126Z" fill="white"/>
<rect x="222" y="196" width="107" height="41" rx="3" fill="#424242"/>
<rect x="222" y="196" width="107" height="41" rx="3" stroke="#424242" stroke-width="4"/>
<path d="M255.821 216.162V221.418C255.604 221.658 255.271 221.916 254.819 222.191C254.374 222.461 253.812 222.692 253.132 222.886C252.452 223.079 251.652 223.176 250.732 223.176C249.883 223.176 249.112 223.041 248.421 222.771C247.729 222.496 247.135 222.095 246.637 221.567C246.145 221.034 245.764 220.384 245.494 219.616C245.23 218.843 245.099 217.958 245.099 216.962V216.25C245.099 215.254 245.233 214.369 245.503 213.596C245.772 212.822 246.15 212.172 246.637 211.645C247.129 211.111 247.706 210.707 248.368 210.432C249.036 210.156 249.769 210.019 250.565 210.019C251.743 210.019 252.701 210.206 253.439 210.581C254.178 210.95 254.737 211.463 255.118 212.119C255.499 212.77 255.73 213.522 255.812 214.378H252.851C252.792 213.956 252.681 213.599 252.517 213.306C252.358 213.007 252.13 212.781 251.831 212.629C251.532 212.471 251.146 212.392 250.671 212.392C250.302 212.392 249.965 212.471 249.66 212.629C249.361 212.787 249.106 213.027 248.896 213.35C248.685 213.666 248.521 214.064 248.403 214.545C248.292 215.025 248.236 215.588 248.236 216.232V216.962C248.236 217.601 248.289 218.16 248.395 218.641C248.506 219.121 248.67 219.522 248.887 219.845C249.109 220.161 249.391 220.401 249.73 220.565C250.076 220.724 250.483 220.803 250.952 220.803C251.28 220.803 251.562 220.776 251.796 220.724C252.03 220.665 252.224 220.595 252.376 220.513C252.534 220.425 252.654 220.343 252.736 220.267V218.28H250.592V216.162H255.821ZM257.113 218.342V218.157C257.113 217.46 257.213 216.818 257.412 216.232C257.611 215.641 257.904 215.128 258.291 214.694C258.678 214.261 259.155 213.924 259.724 213.684C260.292 213.438 260.948 213.314 261.692 213.314C262.442 213.314 263.102 213.438 263.67 213.684C264.244 213.924 264.725 214.261 265.111 214.694C265.498 215.128 265.791 215.641 265.99 216.232C266.189 216.818 266.289 217.46 266.289 218.157V218.342C266.289 219.033 266.189 219.675 265.99 220.267C265.791 220.853 265.498 221.365 265.111 221.805C264.725 222.238 264.247 222.575 263.679 222.815C263.11 223.056 262.454 223.176 261.71 223.176C260.966 223.176 260.307 223.056 259.732 222.815C259.158 222.575 258.678 222.238 258.291 221.805C257.904 221.365 257.611 220.853 257.412 220.267C257.213 219.675 257.113 219.033 257.113 218.342ZM260.075 218.157V218.342C260.075 218.699 260.102 219.033 260.154 219.344C260.207 219.654 260.295 219.927 260.418 220.161C260.541 220.39 260.708 220.568 260.919 220.697C261.13 220.826 261.394 220.891 261.71 220.891C262.021 220.891 262.278 220.826 262.483 220.697C262.694 220.568 262.861 220.39 262.984 220.161C263.107 219.927 263.195 219.654 263.248 219.344C263.301 219.033 263.327 218.699 263.327 218.342V218.157C263.327 217.812 263.301 217.486 263.248 217.182C263.195 216.871 263.107 216.599 262.984 216.364C262.861 216.124 262.694 215.937 262.483 215.802C262.272 215.667 262.009 215.6 261.692 215.6C261.382 215.6 261.121 215.667 260.91 215.802C260.705 215.937 260.541 216.124 260.418 216.364C260.295 216.599 260.207 216.871 260.154 217.182C260.102 217.486 260.075 217.812 260.075 218.157ZM276.203 220.627V223H269.734V220.627H276.203ZM270.833 210.203V223H267.748V210.203H270.833ZM282.303 220.609V216.689C282.303 216.42 282.265 216.188 282.188 215.995C282.112 215.802 281.992 215.652 281.828 215.547C281.664 215.436 281.444 215.38 281.169 215.38C280.946 215.38 280.756 215.418 280.598 215.494C280.439 215.57 280.319 215.685 280.237 215.837C280.155 215.989 280.114 216.183 280.114 216.417H277.152C277.152 215.978 277.249 215.57 277.442 215.195C277.642 214.814 277.923 214.483 278.286 214.202C278.655 213.921 279.095 213.704 279.604 213.552C280.12 213.394 280.694 213.314 281.327 213.314C282.083 213.314 282.757 213.44 283.349 213.692C283.946 213.944 284.418 214.322 284.764 214.826C285.109 215.324 285.282 215.951 285.282 216.707V220.601C285.282 221.222 285.317 221.693 285.388 222.016C285.458 222.332 285.558 222.61 285.687 222.851V223H282.716C282.575 222.707 282.47 222.35 282.399 221.928C282.335 221.5 282.303 221.061 282.303 220.609ZM282.663 217.19L282.681 218.772H281.371C281.096 218.772 280.861 218.811 280.668 218.887C280.48 218.963 280.328 219.068 280.211 219.203C280.1 219.332 280.018 219.479 279.965 219.643C279.918 219.807 279.895 219.979 279.895 220.161C279.895 220.337 279.936 220.495 280.018 220.636C280.105 220.771 280.223 220.876 280.369 220.952C280.516 221.028 280.68 221.066 280.861 221.066C281.189 221.066 281.468 221.005 281.696 220.882C281.931 220.753 282.109 220.598 282.232 220.416C282.355 220.234 282.417 220.064 282.417 219.906L283.067 221.119C282.95 221.354 282.815 221.591 282.663 221.831C282.517 222.071 282.332 222.294 282.109 222.499C281.893 222.698 281.626 222.862 281.31 222.991C280.993 223.114 280.609 223.176 280.158 223.176C279.572 223.176 279.033 223.056 278.541 222.815C278.055 222.575 277.665 222.241 277.372 221.813C277.079 221.38 276.933 220.882 276.933 220.319C276.933 219.827 277.021 219.388 277.196 219.001C277.378 218.614 277.65 218.286 278.014 218.017C278.377 217.747 278.84 217.542 279.402 217.401C279.965 217.261 280.627 217.19 281.389 217.19H282.663ZM289.835 215.521V223H286.873V213.49H289.65L289.835 215.521ZM289.483 217.92L288.789 217.938C288.789 217.211 288.877 216.563 289.053 215.995C289.229 215.421 289.478 214.935 289.8 214.536C290.122 214.138 290.506 213.836 290.951 213.631C291.402 213.42 291.903 213.314 292.454 213.314C292.894 213.314 293.295 213.379 293.658 213.508C294.027 213.637 294.344 213.845 294.607 214.132C294.877 214.419 295.082 214.8 295.223 215.274C295.369 215.743 295.442 216.323 295.442 217.015V223H292.463V217.006C292.463 216.625 292.41 216.335 292.305 216.136C292.199 215.931 292.047 215.79 291.848 215.714C291.648 215.638 291.405 215.6 291.118 215.6C290.813 215.6 290.556 215.658 290.345 215.775C290.134 215.893 289.964 216.057 289.835 216.268C289.712 216.473 289.621 216.716 289.562 216.997C289.51 217.278 289.483 217.586 289.483 217.92ZM303.062 213.49H305.752V222.631C305.752 223.51 305.55 224.254 305.146 224.863C304.741 225.479 304.176 225.944 303.449 226.261C302.729 226.583 301.885 226.744 300.918 226.744C300.49 226.744 300.054 226.688 299.608 226.577C299.163 226.472 298.747 226.313 298.36 226.103C297.974 225.892 297.648 225.631 297.385 225.32L298.624 223.58C298.864 223.85 299.166 224.078 299.529 224.266C299.893 224.459 300.32 224.556 300.812 224.556C301.24 224.556 301.598 224.479 301.885 224.327C302.178 224.175 302.4 223.952 302.553 223.659C302.705 223.372 302.781 223.023 302.781 222.613V215.74L303.062 213.49ZM296.743 218.359V218.175C296.743 217.454 296.831 216.798 297.007 216.206C297.188 215.608 297.446 215.096 297.78 214.668C298.12 214.234 298.53 213.9 299.011 213.666C299.491 213.432 300.033 213.314 300.637 213.314C301.287 213.314 301.82 213.44 302.236 213.692C302.658 213.938 302.995 214.284 303.247 214.729C303.505 215.175 303.704 215.696 303.845 216.294C303.991 216.886 304.114 217.524 304.214 218.21V218.43C304.114 219.074 303.977 219.684 303.801 220.258C303.631 220.826 303.408 221.33 303.133 221.77C302.857 222.209 302.512 222.555 302.096 222.807C301.686 223.053 301.193 223.176 300.619 223.176C300.021 223.176 299.482 223.056 299.002 222.815C298.527 222.575 298.12 222.238 297.78 221.805C297.446 221.371 297.188 220.861 297.007 220.275C296.831 219.689 296.743 219.051 296.743 218.359ZM299.705 218.175V218.359C299.705 218.717 299.737 219.048 299.802 219.353C299.872 219.657 299.978 219.927 300.118 220.161C300.259 220.39 300.432 220.568 300.637 220.697C300.848 220.826 301.094 220.891 301.375 220.891C301.803 220.891 302.148 220.8 302.412 220.618C302.676 220.437 302.866 220.179 302.983 219.845C303.101 219.511 303.15 219.118 303.133 218.667V217.973C303.145 217.586 303.118 217.246 303.054 216.953C302.989 216.654 302.887 216.405 302.746 216.206C302.611 216.007 302.43 215.857 302.201 215.758C301.979 215.652 301.709 215.6 301.393 215.6C301.117 215.6 300.874 215.664 300.663 215.793C300.452 215.922 300.276 216.104 300.136 216.338C299.995 216.566 299.887 216.839 299.811 217.155C299.74 217.466 299.705 217.806 299.705 218.175Z" fill="white"/>
<rect x="349" y="196" width="72" height="41" rx="3" fill="#424242"/>
<rect x="349" y="196" width="72" height="41" rx="3" stroke="#424242" stroke-width="4"/>
<path d="M382.75 216.162V221.418C382.533 221.658 382.199 221.916 381.748 222.191C381.303 222.461 380.74 222.692 380.061 222.886C379.381 223.079 378.581 223.176 377.661 223.176C376.812 223.176 376.041 223.041 375.35 222.771C374.658 222.496 374.063 222.095 373.565 221.567C373.073 221.034 372.692 220.384 372.423 219.616C372.159 218.843 372.027 217.958 372.027 216.962V216.25C372.027 215.254 372.162 214.369 372.432 213.596C372.701 212.822 373.079 212.172 373.565 211.645C374.058 211.111 374.635 210.707 375.297 210.432C375.965 210.156 376.697 210.019 377.494 210.019C378.672 210.019 379.63 210.206 380.368 210.581C381.106 210.95 381.666 211.463 382.047 212.119C382.428 212.77 382.659 213.522 382.741 214.378H379.779C379.721 213.956 379.609 213.599 379.445 213.306C379.287 213.007 379.059 212.781 378.76 212.629C378.461 212.471 378.074 212.392 377.6 212.392C377.23 212.392 376.894 212.471 376.589 212.629C376.29 212.787 376.035 213.027 375.824 213.35C375.613 213.666 375.449 214.064 375.332 214.545C375.221 215.025 375.165 215.588 375.165 216.232V216.962C375.165 217.601 375.218 218.16 375.323 218.641C375.435 219.121 375.599 219.522 375.815 219.845C376.038 220.161 376.319 220.401 376.659 220.565C377.005 220.724 377.412 220.803 377.881 220.803C378.209 220.803 378.49 220.776 378.725 220.724C378.959 220.665 379.152 220.595 379.305 220.513C379.463 220.425 379.583 220.343 379.665 220.267V218.28H377.521V216.162H382.75ZM387.54 213.49V223H384.569V213.49H387.54ZM384.394 211.038C384.394 210.616 384.546 210.271 384.851 210.001C385.155 209.731 385.551 209.597 386.037 209.597C386.523 209.597 386.919 209.731 387.224 210.001C387.528 210.271 387.681 210.616 387.681 211.038C387.681 211.46 387.528 211.806 387.224 212.075C386.919 212.345 386.523 212.479 386.037 212.479C385.551 212.479 385.155 212.345 384.851 212.075C384.546 211.806 384.394 211.46 384.394 211.038ZM392.277 215.521V223H389.315V213.49H392.093L392.277 215.521ZM391.926 217.92L391.231 217.938C391.231 217.211 391.319 216.563 391.495 215.995C391.671 215.421 391.92 214.935 392.242 214.536C392.564 214.138 392.948 213.836 393.394 213.631C393.845 213.42 394.346 213.314 394.896 213.314C395.336 213.314 395.737 213.379 396.101 213.508C396.47 213.637 396.786 213.845 397.05 214.132C397.319 214.419 397.524 214.8 397.665 215.274C397.812 215.743 397.885 216.323 397.885 217.015V223H394.905V217.006C394.905 216.625 394.853 216.335 394.747 216.136C394.642 215.931 394.489 215.79 394.29 215.714C394.091 215.638 393.848 215.6 393.561 215.6C393.256 215.6 392.998 215.658 392.787 215.775C392.576 215.893 392.406 216.057 392.277 216.268C392.154 216.473 392.063 216.716 392.005 216.997C391.952 217.278 391.926 217.586 391.926 217.92Z" fill="white"/>
<rect x="441" y="196" width="112" height="41" rx="3" fill="#424242"/>
<rect x="441" y="196" width="112" height="41" rx="3" stroke="#424242" stroke-width="4"/>
<path d="M470.606 210.203V223H467.521V210.203H470.606ZM474.456 210.203V212.585H463.76V210.203H474.456ZM478.525 209.5V223H475.563V209.5H478.525ZM478.174 217.92L477.479 217.938C477.479 217.27 477.562 216.654 477.726 216.092C477.89 215.529 478.124 215.04 478.429 214.624C478.733 214.208 479.1 213.886 479.527 213.657C479.955 213.429 480.43 213.314 480.951 213.314C481.42 213.314 481.848 213.382 482.234 213.517C482.627 213.651 482.964 213.868 483.245 214.167C483.532 214.466 483.752 214.855 483.904 215.336C484.062 215.816 484.142 216.402 484.142 217.094V223H481.162V217.076C481.162 216.689 481.106 216.391 480.995 216.18C480.89 215.963 480.737 215.813 480.538 215.731C480.339 215.644 480.096 215.6 479.809 215.6C479.463 215.6 479.182 215.658 478.965 215.775C478.748 215.893 478.581 216.057 478.464 216.268C478.353 216.473 478.276 216.716 478.235 216.997C478.194 217.278 478.174 217.586 478.174 217.92ZM488.773 215.846V223H485.812V213.49H488.58L488.773 215.846ZM491.586 213.42L491.533 216.171C491.416 216.159 491.258 216.145 491.059 216.127C490.859 216.109 490.692 216.101 490.558 216.101C490.212 216.101 489.913 216.142 489.661 216.224C489.415 216.3 489.21 216.417 489.046 216.575C488.888 216.728 488.771 216.921 488.694 217.155C488.624 217.39 488.592 217.662 488.598 217.973L488.062 217.621C488.062 216.982 488.123 216.402 488.246 215.881C488.375 215.354 488.557 214.899 488.791 214.519C489.025 214.132 489.31 213.836 489.644 213.631C489.978 213.42 490.353 213.314 490.769 213.314C490.915 213.314 491.059 213.323 491.199 213.341C491.346 213.358 491.475 213.385 491.586 213.42ZM497.035 223.176C496.262 223.176 495.57 223.056 494.961 222.815C494.352 222.569 493.836 222.232 493.414 221.805C492.998 221.377 492.679 220.885 492.456 220.328C492.239 219.771 492.131 219.183 492.131 218.562V218.228C492.131 217.53 492.228 216.886 492.421 216.294C492.614 215.696 492.901 215.175 493.282 214.729C493.663 214.284 494.141 213.938 494.715 213.692C495.289 213.44 495.957 213.314 496.719 213.314C497.393 213.314 497.996 213.423 498.529 213.64C499.062 213.856 499.514 214.167 499.883 214.571C500.258 214.976 500.542 215.465 500.735 216.039C500.935 216.613 501.034 217.258 501.034 217.973V219.177H493.265V217.322H498.143V217.094C498.148 216.777 498.093 216.508 497.976 216.285C497.864 216.062 497.7 215.893 497.483 215.775C497.267 215.658 497.003 215.6 496.692 215.6C496.37 215.6 496.104 215.67 495.893 215.811C495.688 215.951 495.526 216.145 495.409 216.391C495.298 216.631 495.219 216.909 495.172 217.226C495.125 217.542 495.102 217.876 495.102 218.228V218.562C495.102 218.913 495.148 219.232 495.242 219.52C495.342 219.807 495.482 220.053 495.664 220.258C495.852 220.457 496.074 220.612 496.332 220.724C496.596 220.835 496.895 220.891 497.229 220.891C497.633 220.891 498.031 220.814 498.424 220.662C498.816 220.51 499.153 220.258 499.435 219.906L500.779 221.506C500.586 221.781 500.311 222.048 499.953 222.306C499.602 222.563 499.18 222.774 498.688 222.938C498.195 223.097 497.645 223.176 497.035 223.176ZM506.844 223.176C506.07 223.176 505.379 223.056 504.77 222.815C504.16 222.569 503.645 222.232 503.223 221.805C502.807 221.377 502.487 220.885 502.265 220.328C502.048 219.771 501.939 219.183 501.939 218.562V218.228C501.939 217.53 502.036 216.886 502.229 216.294C502.423 215.696 502.71 215.175 503.091 214.729C503.472 214.284 503.949 213.938 504.523 213.692C505.098 213.44 505.766 213.314 506.527 213.314C507.201 213.314 507.805 213.423 508.338 213.64C508.871 213.856 509.322 214.167 509.691 214.571C510.066 214.976 510.351 215.465 510.544 216.039C510.743 216.613 510.843 217.258 510.843 217.973V219.177H503.073V217.322H507.951V217.094C507.957 216.777 507.901 216.508 507.784 216.285C507.673 216.062 507.509 215.893 507.292 215.775C507.075 215.658 506.812 215.6 506.501 215.6C506.179 215.6 505.912 215.67 505.701 215.811C505.496 215.951 505.335 216.145 505.218 216.391C505.106 216.631 505.027 216.909 504.98 217.226C504.934 217.542 504.91 217.876 504.91 218.228V218.562C504.91 218.913 504.957 219.232 505.051 219.52C505.15 219.807 505.291 220.053 505.473 220.258C505.66 220.457 505.883 220.612 506.141 220.724C506.404 220.835 506.703 220.891 507.037 220.891C507.441 220.891 507.84 220.814 508.232 220.662C508.625 220.51 508.962 220.258 509.243 219.906L510.588 221.506C510.395 221.781 510.119 222.048 509.762 222.306C509.41 222.563 508.988 222.774 508.496 222.938C508.004 223.097 507.453 223.176 506.844 223.176ZM517.276 218.983V210.203H520.353V218.983C520.353 219.839 520.156 220.58 519.764 221.207C519.377 221.834 518.85 222.32 518.182 222.666C517.52 223.006 516.775 223.176 515.949 223.176C515.094 223.176 514.332 223.032 513.664 222.745C513.002 222.458 512.48 222.016 512.1 221.418C511.725 220.82 511.537 220.059 511.537 219.133H514.631C514.631 219.566 514.681 219.906 514.78 220.152C514.88 220.393 515.026 220.562 515.22 220.662C515.419 220.756 515.662 220.803 515.949 220.803C516.23 220.803 516.468 220.732 516.661 220.592C516.86 220.445 517.013 220.237 517.118 219.968C517.224 219.692 517.276 219.364 517.276 218.983ZM527.155 220.328C527.155 220.164 527.1 220.023 526.988 219.906C526.883 219.783 526.695 219.672 526.426 219.572C526.156 219.467 525.778 219.361 525.292 219.256C524.829 219.156 524.393 219.024 523.982 218.86C523.578 218.696 523.224 218.497 522.919 218.263C522.614 218.028 522.374 217.75 522.198 217.428C522.028 217.105 521.943 216.736 521.943 216.32C521.943 215.916 522.028 215.535 522.198 215.178C522.374 214.814 522.629 214.495 522.963 214.22C523.303 213.938 523.716 213.719 524.202 213.561C524.688 213.396 525.242 213.314 525.863 213.314C526.719 213.314 527.457 213.446 528.078 213.71C528.699 213.968 529.177 214.331 529.511 214.8C529.851 215.263 530.021 215.799 530.021 216.408H527.059C527.059 216.168 527.018 215.963 526.936 215.793C526.859 215.623 526.733 215.494 526.558 215.406C526.382 215.312 526.147 215.266 525.854 215.266C525.649 215.266 525.462 215.304 525.292 215.38C525.128 215.456 524.996 215.562 524.896 215.696C524.797 215.831 524.747 215.989 524.747 216.171C524.747 216.3 524.776 216.417 524.835 216.522C524.899 216.622 524.996 216.716 525.125 216.804C525.254 216.886 525.418 216.962 525.617 217.032C525.816 217.097 526.057 217.155 526.338 217.208C526.977 217.325 527.574 217.492 528.131 217.709C528.688 217.926 529.139 218.233 529.484 218.632C529.836 219.03 530.012 219.566 530.012 220.24C530.012 220.662 529.915 221.052 529.722 221.409C529.528 221.761 529.25 222.071 528.887 222.341C528.523 222.604 528.087 222.81 527.577 222.956C527.067 223.103 526.493 223.176 525.854 223.176C524.946 223.176 524.179 223.015 523.552 222.692C522.925 222.364 522.45 221.954 522.128 221.462C521.812 220.964 521.653 220.46 521.653 219.95H524.413C524.425 220.243 524.495 220.483 524.624 220.671C524.759 220.858 524.938 220.996 525.16 221.084C525.383 221.172 525.641 221.216 525.934 221.216C526.203 221.216 526.426 221.178 526.602 221.102C526.783 221.025 526.921 220.923 527.015 220.794C527.108 220.659 527.155 220.504 527.155 220.328Z" fill="white"/>
<rect x="573" y="196" width="103" height="41" rx="3" fill="#424242"/>
<rect x="573" y="196" width="103" height="41" rx="3" stroke="#424242" stroke-width="4"/>
<path d="M597.72 210.203H600.233L603.09 219.106L605.946 210.203H608.46L604.109 223H602.07L597.72 210.203ZM596.19 210.203H598.792L599.275 220.012V223H596.19V210.203ZM607.388 210.203H609.998V223H606.904V220.012L607.388 210.203ZM614.753 221.884L617.214 213.49H620.396L616.572 224.415C616.49 224.655 616.382 224.913 616.247 225.188C616.112 225.47 615.928 225.736 615.693 225.988C615.459 226.24 615.157 226.445 614.788 226.604C614.425 226.762 613.974 226.841 613.435 226.841C613.147 226.841 612.937 226.826 612.802 226.797C612.673 226.773 612.474 226.729 612.204 226.665V224.547C612.28 224.547 612.345 224.547 612.397 224.547C612.456 224.547 612.521 224.547 612.591 224.547C612.907 224.547 613.159 224.515 613.347 224.45C613.54 224.386 613.687 224.292 613.786 224.169C613.892 224.046 613.974 223.896 614.032 223.721L614.753 221.884ZM614.129 213.49L616.001 220.144L616.326 223.281H614.34L610.956 213.49H614.129ZM627.901 219.599C627.901 219.399 627.872 219.221 627.813 219.062C627.755 218.898 627.646 218.746 627.488 218.605C627.33 218.465 627.102 218.324 626.803 218.184C626.51 218.037 626.123 217.885 625.643 217.727C625.08 217.539 624.538 217.328 624.017 217.094C623.495 216.854 623.029 216.575 622.619 216.259C622.209 215.937 621.884 215.562 621.644 215.134C621.403 214.7 621.283 214.196 621.283 213.622C621.283 213.071 621.406 212.576 621.652 212.137C621.898 211.691 622.241 211.313 622.681 211.003C623.126 210.687 623.647 210.446 624.245 210.282C624.843 210.112 625.496 210.027 626.205 210.027C627.143 210.027 627.969 210.191 628.684 210.52C629.404 210.842 629.967 211.302 630.371 211.899C630.781 212.491 630.986 213.191 630.986 214H627.919C627.919 213.678 627.852 213.394 627.717 213.147C627.588 212.901 627.392 212.708 627.128 212.567C626.864 212.427 626.533 212.356 626.135 212.356C625.748 212.356 625.423 212.415 625.159 212.532C624.896 212.649 624.696 212.808 624.562 213.007C624.427 213.2 624.359 213.414 624.359 213.648C624.359 213.842 624.412 214.018 624.518 214.176C624.629 214.328 624.784 214.472 624.983 214.606C625.188 214.741 625.435 214.87 625.722 214.993C626.015 215.116 626.343 215.236 626.706 215.354C627.386 215.57 627.989 215.813 628.517 216.083C629.05 216.347 629.498 216.648 629.861 216.988C630.23 217.322 630.509 217.703 630.696 218.131C630.89 218.559 630.986 219.042 630.986 219.581C630.986 220.155 630.875 220.665 630.652 221.11C630.43 221.556 630.11 221.934 629.694 222.244C629.278 222.549 628.78 222.78 628.2 222.938C627.62 223.097 626.973 223.176 626.258 223.176C625.602 223.176 624.954 223.094 624.315 222.93C623.683 222.76 623.108 222.502 622.593 222.156C622.077 221.805 621.664 221.356 621.354 220.812C621.049 220.261 620.896 219.607 620.896 218.852H623.99C623.99 219.227 624.04 219.543 624.14 219.801C624.239 220.059 624.386 220.267 624.579 220.425C624.772 220.577 625.01 220.688 625.291 220.759C625.572 220.823 625.895 220.855 626.258 220.855C626.65 220.855 626.967 220.8 627.207 220.688C627.447 220.571 627.623 220.419 627.734 220.231C627.846 220.038 627.901 219.827 627.901 219.599ZM639.714 220.891L643.282 223.721L641.366 225.338L637.859 222.508L639.714 220.891ZM643.432 216.347V216.865C643.432 217.844 643.294 218.723 643.019 219.502C642.749 220.275 642.362 220.938 641.858 221.488C641.36 222.033 640.771 222.452 640.092 222.745C639.412 223.032 638.662 223.176 637.842 223.176C637.016 223.176 636.26 223.032 635.574 222.745C634.895 222.452 634.303 222.033 633.799 221.488C633.301 220.938 632.914 220.275 632.639 219.502C632.369 218.723 632.234 217.844 632.234 216.865V216.347C632.234 215.368 632.369 214.489 632.639 213.71C632.914 212.931 633.298 212.269 633.79 211.724C634.288 211.173 634.877 210.754 635.557 210.467C636.242 210.174 636.998 210.027 637.824 210.027C638.645 210.027 639.395 210.174 640.074 210.467C640.76 210.754 641.352 211.173 641.85 211.724C642.354 212.269 642.743 212.931 643.019 213.71C643.294 214.489 643.432 215.368 643.432 216.347ZM640.294 216.865V216.329C640.294 215.696 640.238 215.14 640.127 214.659C640.021 214.173 639.863 213.766 639.652 213.438C639.441 213.109 639.181 212.863 638.87 212.699C638.565 212.529 638.217 212.444 637.824 212.444C637.414 212.444 637.057 212.529 636.752 212.699C636.447 212.863 636.192 213.109 635.987 213.438C635.782 213.766 635.627 214.173 635.521 214.659C635.422 215.14 635.372 215.696 635.372 216.329V216.865C635.372 217.492 635.422 218.049 635.521 218.535C635.627 219.016 635.782 219.423 635.987 219.757C636.198 220.091 636.456 220.343 636.761 220.513C637.071 220.683 637.432 220.768 637.842 220.768C638.234 220.768 638.583 220.683 638.888 220.513C639.192 220.343 639.447 220.091 639.652 219.757C639.863 219.423 640.021 219.016 640.127 218.535C640.238 218.049 640.294 217.492 640.294 216.865ZM653.46 220.627V223H646.991V220.627H653.46ZM648.09 210.203V223H645.005V210.203H648.09Z" fill="white"/>
<path d="M1066 0H1348C1356.28 0 1363 6.71573 1363 15V282C1363 290.284 1356.28 297 1348 297H1066V0Z" fill="white"/>
</svg>
